# Blender v2.81 (sub 16) OBJ File: ''
# www.blender.org
mtllib RedPaintDrop.mtl
o Red_Paint_Drop_Plane.001
v 1.071571 2.100326 -1.555674
v 1.151109 2.105409 -1.587644
v 1.270705 2.114234 -1.619274
v 1.376251 2.123805 -1.622395
v 1.492196 2.135693 -1.606697
v 1.600171 2.150470 -1.540498
v 1.684179 2.165241 -1.443465
v 1.733214 2.180513 -1.294285
v 1.710482 2.188755 -1.150260
v 1.646712 2.192741 -1.012470
v 1.524245 2.188436 -0.914240
v 1.368027 2.176363 -0.880511
v 1.256402 2.164648 -0.899383
v 1.132914 2.148536 -0.964108
v 1.065481 2.139064 -1.008826
v 0.998624 2.131992 -1.020897
v 0.956406 2.128164 -1.019649
v 0.905062 2.122426 -1.033194
v 0.917542 2.121380 -1.063858
v 0.945133 2.123554 -1.069244
v 0.979393 2.127658 -1.056378
v 1.029167 2.133095 -1.044987
v 1.067265 2.135808 -1.056437
v 1.079651 2.133926 -1.098608
v 1.047283 2.124788 -1.183967
v 0.970415 2.116127 -1.205219
v 0.884315 2.107334 -1.216383
v 0.782312 2.096479 -1.235708
v 0.766718 2.091696 -1.282128
v 0.802951 2.094215 -1.293862
v 0.853315 2.099439 -1.286212
v 0.947561 2.109627 -1.266150
v 0.990960 2.113027 -1.274880
v 1.043592 2.116558 -1.293699
v 1.050289 2.113261 -1.348225
v 1.005936 2.104118 -1.418167
v 0.956270 2.096902 -1.454441
v 0.898257 2.089233 -1.486236
v 0.836795 2.083684 -1.484081
v 0.779855 2.077365 -1.498476
v 0.755915 2.072129 -1.540418
v 0.799126 2.073858 -1.572160
v 0.838593 2.077814 -1.568081
v 0.886595 2.083894 -1.545467
v 0.949131 2.090793 -1.530221
v 1.027676 2.097975 -1.531697
v 1.074171 2.072312 -1.553661
v 1.153709 2.077396 -1.585630
v 1.273305 2.086221 -1.617261
v 1.378850 2.095791 -1.620381
v 1.494796 2.107679 -1.604684
v 1.602771 2.122457 -1.538485
v 1.686778 2.137227 -1.441451
v 1.735814 2.152500 -1.292271
v 1.713082 2.160742 -1.148247
v 1.649312 2.164727 -1.010457
v 1.526845 2.160422 -0.912227
v 1.370627 2.148350 -0.878498
v 1.259002 2.136634 -0.897369
v 1.135514 2.120523 -0.962094
v 1.068080 2.111051 -1.006813
v 1.001224 2.103979 -1.018884
v 0.959005 2.100151 -1.017636
v 0.907662 2.094413 -1.031181
v 0.920142 2.093367 -1.061845
v 0.947733 2.095540 -1.067230
v 0.981993 2.099644 -1.054365
v 1.031767 2.105082 -1.042974
v 1.069865 2.107795 -1.054424
v 1.082251 2.105913 -1.096594
v 1.049883 2.096774 -1.181953
v 0.973015 2.088113 -1.203206
v 0.886914 2.079321 -1.214370
v 0.784912 2.068466 -1.233695
v 0.769318 2.063683 -1.280115
v 0.805551 2.066202 -1.291849
v 0.855915 2.071425 -1.284199
v 0.950161 2.081613 -1.264136
v 0.993560 2.085013 -1.272866
v 1.046192 2.088545 -1.291685
v 1.052888 2.085247 -1.346212
v 1.008536 2.076104 -1.416153
v 0.958870 2.068888 -1.452428
v 0.900857 2.061219 -1.484223
v 0.839395 2.055671 -1.482068
v 0.782455 2.049352 -1.496463
v 0.758514 2.044116 -1.538405
v 0.801725 2.045844 -1.570147
v 0.841192 2.049800 -1.566067
v 0.889195 2.055880 -1.543453
v 0.951730 2.062779 -1.528208
v 1.030275 2.069962 -1.529684
vt 0.430142 0.664058
vt 0.458591 0.589141
vt 0.457643 0.532243
vt 0.434883 0.465861
vt 0.417814 0.428877
vt 0.416866 0.394738
vt 0.420659 0.373875
vt 0.417814 0.347322
vt 0.401693 0.351115
vt 0.396951 0.364391
vt 0.400744 0.382409
vt 0.402641 0.408014
vt 0.394106 0.426032
vt 0.372295 0.428877
vt 0.332466 0.406117
vt 0.327724 0.366288
vt 0.328672 0.322666
vt 0.326776 0.270509
vt 0.304965 0.259129
vt 0.296430 0.276199
vt 0.296430 0.301803
vt 0.299275 0.350167
vt 0.291688 0.371030
vt 0.278412 0.395686
vt 0.250911 0.394737
vt 0.219617 0.367236
vt 0.205392 0.339735
vt 0.194012 0.308441
vt 0.199702 0.278095
vt 0.196857 0.248698
vt 0.177891 0.233525
vt 0.158925 0.252491
vt 0.157976 0.272405
vt 0.165563 0.298010
vt 0.168408 0.330252
vt 0.161770 0.369133
vt 0.146597 0.389048
vt 0.124786 0.426032
vt 0.100129 0.482930
vt 0.090646 0.535088
vt 0.089698 0.593883
vt 0.114354 0.652678
vt 0.156080 0.701990
vt 0.226255 0.738026
vt 0.299275 0.738026
vt 0.372295 0.717163
vt 0.430142 0.664058
vt 0.372295 0.717163
vt 0.299275 0.738026
vt 0.226255 0.738026
vt 0.156080 0.701990
vt 0.114354 0.652678
vt 0.089698 0.593883
vt 0.090646 0.535088
vt 0.100129 0.482930
vt 0.124786 0.426032
vt 0.146597 0.389048
vt 0.161770 0.369133
vt 0.168408 0.330252
vt 0.165563 0.298010
vt 0.157976 0.272405
vt 0.158925 0.252491
vt 0.177891 0.233525
vt 0.196857 0.248698
vt 0.199702 0.278095
vt 0.194012 0.308441
vt 0.205392 0.339735
vt 0.219617 0.367236
vt 0.250911 0.394737
vt 0.278412 0.395686
vt 0.291688 0.371030
vt 0.299275 0.350167
vt 0.296430 0.301803
vt 0.296430 0.276199
vt 0.304965 0.259129
vt 0.326776 0.270509
vt 0.328672 0.322666
vt 0.327724 0.366288
vt 0.332466 0.406117
vt 0.372295 0.428877
vt 0.394106 0.426032
vt 0.402641 0.408014
vt 0.400744 0.382409
vt 0.396951 0.364391
vt 0.401693 0.351115
vt 0.417814 0.347322
vt 0.420659 0.373875
vt 0.416866 0.394738
vt 0.417814 0.428877
vt 0.434883 0.465861
vt 0.457643 0.532243
vt 0.458591 0.589141
vn 0.0922 -0.9932 0.0714
vn -0.0922 0.9932 -0.0714
vn -0.6192 -0.1133 -0.7770
vn 0.4824 -0.0182 -0.8758
vn 0.9311 0.0606 -0.3596
vn -0.2036 -0.0890 -0.9750
vn -0.0283 -0.0743 -0.9968
vn 0.2708 -0.0440 -0.9616
vn 0.1720 -0.0547 -0.9836
vn 0.2497 -0.0463 -0.9672
vn 0.1343 -0.0586 -0.9892
vn 0.4662 -0.0203 -0.8844
vn 0.8652 0.0444 -0.4994
vn 0.1913 -0.0527 -0.9801
vn 0.5535 -0.0085 -0.8328
vn 0.5854 0.1120 0.8030
vn 0.3655 0.1004 0.9254
vn 0.9440 0.0643 -0.3237
vn 0.1829 -0.0536 -0.9817
vn -0.1087 0.0612 0.9922
vn 0.2482 0.0923 0.9643
vn 0.3006 0.0961 0.9489
vn -0.0228 -0.0738 -0.9970
vn -0.4287 0.0251 0.9031
vn 0.0228 0.0738 0.9970
vn -0.1557 0.0564 0.9862
vn 0.2595 -0.0452 -0.9647
vn -0.2415 0.0473 0.9692
vn -0.1398 0.0581 0.9885
vn -0.2131 0.0503 0.9757
vn 0.9217 0.1122 0.3713
vn 0.0121 0.0728 0.9973
vn -0.5239 0.0126 0.8517
vn 0.1898 0.0879 0.9779
vn 0.1842 0.0875 0.9790
vn 0.4722 0.1067 0.8750
vn -0.7541 -0.0228 0.6564
vn 0.3292 0.0981 0.9391
vn -0.3549 0.0342 0.9343
vn -0.9460 -0.0650 0.3176
vn 0.9883 0.1000 0.1153
vn -0.2279 0.0487 0.9725
vn -0.9835 -0.1020 -0.1494
vn 0.8415 0.0394 -0.5388
vn 0.2803 0.0947 0.9552
vn -0.9029 -0.1136 -0.4146
vn 0.5901 -0.0033 -0.8073
vn 0.9551 0.1084 0.2757
usemtl None
s off
f 11/1/1 12/2/1 13/3/1 14/4/1 15/5/1 16/6/1 17/7/1 18/8/1 19/9/1 20/10/1 21/11/1 22/12/1 23/13/1 24/14/1 25/15/1 26/16/1 27/17/1 28/18/1 29/19/1 30/20/1 31/21/1 32/22/1 33/23/1 34/24/1 35/25/1 36/26/1 37/27/1 38/28/1 39/29/1 40/30/1 41/31/1 42/32/1 43/33/1 44/34/1 45/35/1 46/36/1 1/37/1 2/38/1 3/39/1 4/40/1 5/41/1 6/42/1 7/43/1 8/44/1 9/45/1 10/46/1
f 57/47/2 56/48/2 55/49/2 54/50/2 53/51/2 52/52/2 51/53/2 50/54/2 49/55/2 48/56/2 47/57/2 92/58/2 91/59/2 90/60/2 89/61/2 88/62/2 87/63/2 86/64/2 85/65/2 84/66/2 83/67/2 82/68/2 81/69/2 80/70/2 79/71/2 78/72/2 77/73/2 76/74/2 75/75/2 74/76/2 73/77/2 72/78/2 71/79/2 70/80/2 69/81/2 68/82/2 67/83/2 66/84/2 65/85/2 64/86/2 63/87/2 62/88/2 61/89/2 60/90/2 59/91/2 58/92/2
f 11/1/3 10/46/3 56/48/3 57/47/3
f 38/28/4 37/27/4 83/67/4 84/66/4
f 25/15/5 24/14/5 70/80/5 71/79/5
f 12/2/6 11/1/6 57/47/6 58/92/6
f 39/29/7 38/28/7 84/66/7 85/65/7
f 26/16/8 25/15/8 71/79/8 72/78/8
f 13/3/9 12/2/9 58/92/9 59/91/9
f 40/30/10 39/29/10 85/65/10 86/64/10
f 27/17/11 26/16/11 72/78/11 73/77/11
f 14/4/12 13/3/12 59/91/12 60/90/12
f 41/31/13 40/30/13 86/64/13 87/63/13
f 28/18/14 27/17/14 73/77/14 74/76/14
f 15/5/15 14/4/15 60/90/15 61/89/15
f 42/32/16 41/31/16 87/63/16 88/62/16
f 2/38/17 1/37/17 47/57/17 48/56/17
f 29/19/18 28/18/18 74/76/18 75/75/18
f 16/6/19 15/5/19 61/89/19 62/88/19
f 43/33/20 42/32/20 88/62/20 89/61/20
f 3/39/21 2/38/21 48/56/21 49/55/21
f 30/20/22 29/19/22 75/75/22 76/74/22
f 17/7/23 16/6/23 62/88/23 63/87/23
f 44/34/24 43/33/24 89/61/24 90/60/24
f 4/40/25 3/39/25 49/55/25 50/54/25
f 31/21/26 30/20/26 76/74/26 77/73/26
f 18/8/27 17/7/27 63/87/27 64/86/27
f 45/35/28 44/34/28 90/60/28 91/59/28
f 5/41/29 4/40/29 50/54/29 51/53/29
f 32/22/30 31/21/30 77/73/30 78/72/30
f 19/9/31 18/8/31 64/86/31 65/85/31
f 46/36/32 45/35/32 91/59/32 92/58/32
f 6/42/33 5/41/33 51/53/33 52/52/33
f 33/23/34 32/22/34 78/72/34 79/71/34
f 20/10/35 19/9/35 65/85/35 66/84/35
f 1/37/36 46/36/36 92/58/36 47/57/36
f 7/43/37 6/42/37 52/52/37 53/51/37
f 34/24/38 33/23/38 79/71/38 80/70/38
f 21/11/39 20/10/39 66/84/39 67/83/39
f 8/44/40 7/43/40 53/51/40 54/50/40
f 35/25/41 34/24/41 80/70/41 81/69/41
f 22/12/42 21/11/42 67/83/42 68/82/42
f 9/45/43 8/44/43 54/50/43 55/49/43
f 36/26/44 35/25/44 81/69/44 82/68/44
f 23/13/45 22/12/45 68/82/45 69/81/45
f 10/46/46 9/45/46 55/49/46 56/48/46
f 37/27/47 36/26/47 82/68/47 83/67/47
f 24/14/48 23/13/48 69/81/48 70/80/48
