# Blender v2.81 (sub 16) OBJ File: ''
# www.blender.org
mtllib Pyramid_alone.mtl
o Pyramid_Cone
v -2.540112 0.555046 -2.537573
v 2.527087 0.552625 -2.547355
v 2.536862 0.539261 2.519828
v -2.530337 0.541682 2.529609
v 0.001625 7.278152 0.008873
vt 0.250000 0.490000
vt 0.250000 0.250000
vt 0.490000 0.250000
vt 0.250000 0.010000
vt 0.010000 0.250000
vt 0.750000 0.490000
vt 0.990000 0.250000
vt 0.750000 0.010000
vt 0.510000 0.250000
vn -0.0016 0.3547 -0.9350
vn 0.9361 0.3518 -0.0009
vn 0.0020 0.3498 0.9368
vn -0.9357 0.3527 0.0027
vn -0.0005 -1.0000 -0.0026
usemtl None
s off
f 1/1/1 5/2/1 2/3/1
f 2/3/2 5/2/2 3/4/2
f 3/4/3 5/2/3 4/5/3
f 4/5/4 5/2/4 1/1/4
f 1/6/5 2/7/5 3/8/5 4/9/5
