# Blender v2.81 (sub 16) OBJ File: ''
# www.blender.org
mtllib Walkman_Body.mtl
o Walkman_Body_Cube.010
v -0.415178 0.058485 1.406747
v -0.415178 0.261027 1.547422
v -0.456696 0.261027 1.406747
v -0.415178 4.311871 1.547422
v -0.415178 4.514413 1.406747
v -0.456696 4.311871 1.406747
v -0.415178 0.058485 -1.406747
v -0.456696 0.261027 -1.406747
v -0.415178 0.261027 -1.547422
v -0.415178 4.514413 -1.406747
v -0.415178 4.311871 -1.547422
v -0.456696 4.311871 -1.406747
v 0.415178 0.058485 1.406747
v 0.456696 0.261027 1.406747
v 0.415178 0.261027 1.547422
v 0.415178 4.514413 1.406747
v 0.415178 4.311871 1.547422
v 0.456696 4.311871 1.406747
v 0.415178 0.058485 -1.406747
v 0.415178 0.261027 -1.547422
v 0.456696 0.261027 -1.406747
v 0.415178 4.514413 -1.406747
v 0.456696 4.311871 -1.406747
v 0.415178 4.311871 -1.547422
v 0.000000 0.058485 -1.406747
v 0.000000 0.261027 -1.547422
v 0.000000 4.514413 -1.406747
v 0.000000 4.311871 -1.547422
v 0.000000 0.058485 1.406747
v 0.000000 0.261027 1.547422
v 0.000000 4.514413 1.406747
v 0.000000 4.311871 1.547422
v 0.207589 0.261027 -1.547422
v 0.207589 4.514413 -1.406747
v 0.207589 0.058485 1.406747
v 0.207589 4.311871 1.547422
v 0.207589 0.058485 -1.406747
v 0.207589 4.311871 -1.547422
v 0.207589 0.261027 1.547422
v 0.207589 4.514413 1.406747
v -0.208634 0.058485 -1.406747
v -0.208634 4.311871 -1.547422
v -0.208634 0.261027 1.547422
v -0.208634 4.514413 1.406747
v -0.208634 0.261027 -1.547422
v -0.208634 4.514413 -1.406747
v -0.208634 0.058485 1.406747
v -0.208634 4.311871 1.547422
v -0.415178 0.058485 0.000753
v -0.456696 0.261027 0.000753
v -0.415178 4.514413 0.000753
v -0.456696 4.311871 0.000753
v 0.415178 0.058485 0.000753
v 0.456696 0.261027 0.000753
v 0.415178 4.514413 0.000753
v 0.456696 4.311871 0.000753
v 0.000000 0.058485 0.000753
v 0.000000 4.514413 0.000753
v 0.207589 4.514413 0.000753
v 0.207589 0.058485 0.000753
v -0.208634 0.058485 0.000753
v -0.208634 4.514413 0.000753
v -0.415178 0.058485 0.704490
v -0.456696 4.311871 0.704490
v 0.456696 0.261027 0.704490
v 0.415178 4.514413 0.704490
v 0.000000 0.058485 0.704490
v 0.000000 4.514413 0.704490
v 0.207589 4.514413 0.704490
v 0.207589 0.058485 0.704490
v -0.208634 0.058485 0.704490
v -0.208634 4.514413 0.704490
v -0.456696 0.261027 0.704490
v -0.415178 4.514413 0.704490
v 0.415178 0.058485 0.704490
v 0.456696 4.311871 0.704490
v -0.415178 2.286449 1.547422
v -0.456696 2.286449 1.406747
v -0.415178 2.286449 -1.547422
v -0.456696 2.286449 -1.406747
v 0.456696 2.286449 -1.406747
v 0.415178 2.286449 -1.547422
v 0.415178 2.286449 1.547422
v 0.456696 2.286449 1.406747
v 0.000000 2.286449 -1.547422
v 0.000000 2.286449 1.547422
v 0.207589 2.286449 1.547422
v 0.207589 2.286449 -1.547422
v -0.208634 2.286449 -1.547422
v -0.208634 2.286449 1.547422
v -0.456696 2.286449 0.000753
v 0.456696 2.286449 0.000753
v -0.456696 2.286449 0.704490
v 0.456696 2.286449 0.704490
vt 0.500000 0.124939
vt 0.613636 0.124939
vt 0.613636 0.238636
vt 0.500000 0.238636
vt 0.500000 0.431818
vt 0.613636 0.431818
vt 0.613636 0.488636
vt 0.500000 0.488636
vt 0.136364 0.511364
vt 0.125000 0.511364
vt 0.136364 0.500000
vt 0.863636 0.511364
vt 0.863636 0.500000
vt 0.875000 0.511364
vt 0.363636 0.511364
vt 0.363636 0.500000
vt 0.375000 0.511364
vt 0.636364 0.511364
vt 0.625000 0.511364
vt 0.636364 0.500000
vt 0.863636 0.625061
vt 0.875000 0.625061
vt 0.500000 0.261364
vt 0.386364 0.261364
vt 0.386364 0.238636
vt 0.192896 0.511364
vt 0.192896 0.500000
vt 0.693182 0.511364
vt 0.693182 0.500000
vt 0.500000 0.511364
vt 0.386364 0.511364
vt 0.386364 0.488636
vt 0.363636 0.625061
vt 0.386364 0.625061
vt 0.306818 0.511364
vt 0.250000 0.511364
vt 0.250000 0.500000
vt 0.306818 0.500000
vt 0.613636 0.261364
vt 0.613636 0.317896
vt 0.500000 0.317896
vt 0.807104 0.511364
vt 0.807104 0.500000
vt 0.192896 0.625061
vt 0.136364 0.625061
vt 0.306818 0.625061
vt 0.250000 0.625061
vt 0.693182 0.625061
vt 0.636364 0.625061
vt 0.613636 0.625061
vt 0.613636 0.511364
vt 0.363636 0.681908
vt 0.386364 0.681908
vt 0.863636 0.681908
vt 0.875000 0.681908
vt 0.125000 0.625061
vt 0.500000 0.068092
vt 0.613636 0.068092
vt 0.807104 0.625061
vt 0.500000 0.625061
vt 0.192896 0.681908
vt 0.136364 0.681908
vt 0.306818 0.681908
vt 0.250000 0.681908
vt 0.693182 0.681908
vt 0.636364 0.681908
vt 0.613636 0.681908
vt 0.125000 0.681908
vt 0.807104 0.681908
vt 0.500000 0.681908
vt 0.386364 0.068092
vt 0.386364 0.124939
vt 0.386364 0.317896
vt 0.386364 0.375000
vt 0.500000 0.375000
vt 0.386364 0.431818
vt 0.500000 0.932104
vt 0.613636 0.932104
vt 0.613636 0.988636
vt 0.500000 0.988636
vt 0.613636 0.738636
vt 0.500000 0.738636
vt 0.863636 0.738636
vt 0.807104 0.738636
vt 0.136364 0.738636
vt 0.136364 0.750000
vt 0.125000 0.738636
vt 0.625000 0.988636
vt 0.613636 1.000000
vt 0.363636 0.738636
vt 0.375000 0.738636
vt 0.363636 0.750000
vt 0.636364 0.738636
vt 0.636364 0.750000
vt 0.625000 0.738636
vt 0.500000 1.000000
vt 0.500000 0.761364
vt 0.386364 0.761364
vt 0.386364 0.738636
vt 0.306818 0.738636
vt 0.306818 0.750000
vt 0.863636 0.750000
vt 0.807104 0.750000
vt 0.250000 0.738636
vt 0.192896 0.738636
vt 0.693182 0.738636
vt 0.750000 0.738636
vt 0.750000 0.750000
vt 0.693182 0.750000
vt 0.250000 0.750000
vt 0.192896 0.750000
vt 0.750000 0.511364
vt 0.750000 0.500000
vt 0.613636 0.375000
vt 0.750000 0.681908
vt 0.500000 0.818182
vt 0.613636 0.818182
vt 0.613636 0.875000
vt 0.500000 0.875000
vt 0.613636 0.761364
vt 0.750000 0.625061
vt 0.500000 0.011364
vt 0.613636 0.011364
vt 0.875000 0.738636
vt 0.386364 0.011364
vt 0.386364 0.875000
vt 0.386364 0.932104
vt 0.386364 0.818182
vt 0.386364 0.988636
vt 0.386364 1.000000
vn -1.0000 0.0000 0.0000
vn 0.0000 0.0000 -1.0000
vn -0.9411 -0.1929 -0.2777
vn -0.9411 0.1929 -0.2777
vn 0.9411 -0.1929 -0.2777
vn 0.9411 0.1929 -0.2777
vn -0.9796 0.2008 0.0000
vn -0.9591 0.0000 -0.2831
vn 0.0000 -0.5705 -0.8213
vn 0.0000 0.5705 -0.8213
vn 0.9591 0.0000 -0.2831
vn 0.9796 -0.2008 0.0000
vn 0.0000 -1.0000 0.0000
vn 0.0000 1.0000 0.0000
vn 0.9796 0.2008 0.0000
vn -0.9796 -0.2008 0.0000
vn 1.0000 0.0000 0.0000
vn 0.0000 0.0000 1.0000
vn -0.9411 -0.1929 0.2777
vn -0.9411 0.1929 0.2777
vn 0.9411 -0.1929 0.2777
vn 0.9411 0.1929 0.2777
vn -0.9591 0.0000 0.2831
vn 0.9591 0.0000 0.2831
vn 0.0000 -0.5705 0.8213
vn 0.0000 0.5705 0.8213
usemtl Material.002
s off
f 91/1/1 52/2/1 12/3/1 80/4/1
f 88/5/2 38/6/2 24/7/2 82/8/2
f 7/9/3 8/10/3 9/11/3
f 10/12/4 11/13/4 12/14/4
f 19/15/5 20/16/5 21/17/5
f 22/18/6 23/19/6 24/20/6
f 51/21/7 10/12/7 12/14/7 52/22/7
f 79/23/8 9/24/8 8/25/8 80/4/8
f 41/26/9 7/9/9 9/11/9 45/27/9
f 34/28/10 22/18/10 24/20/10 38/29/10
f 81/30/11 21/31/11 20/32/11 82/8/11
f 53/33/12 19/15/12 21/31/12 54/34/12
f 37/35/9 25/36/9 26/37/9 33/38/9
f 19/15/9 37/35/9 33/38/9 20/16/9
f 79/23/2 11/39/2 42/40/2 89/41/2
f 10/12/10 46/42/10 42/43/10 11/13/10
f 25/36/9 41/26/9 45/27/9 26/37/9
f 7/9/13 41/26/13 61/44/13 49/45/13
f 25/36/13 37/35/13 60/46/13 57/47/13
f 22/18/14 34/28/14 59/48/14 55/49/14
f 41/26/13 25/36/13 57/47/13 61/44/13
f 37/35/13 19/15/13 53/33/13 60/46/13
f 22/18/15 55/49/15 56/50/15 23/51/15
f 75/52/12 53/33/12 54/34/12 65/53/12
f 74/54/7 51/21/7 52/22/7 64/55/7
f 7/9/16 49/45/16 50/56/16 8/10/16
f 93/57/1 64/58/1 52/2/1 91/1/1
f 46/42/14 10/12/14 51/21/14 62/59/14
f 81/30/17 23/51/17 56/50/17 92/60/17
f 49/45/13 61/44/13 71/61/13 63/62/13
f 57/47/13 60/46/13 70/63/13 67/64/13
f 55/49/14 59/48/14 69/65/14 66/66/14
f 61/44/13 57/47/13 67/64/13 71/61/13
f 60/46/13 53/33/13 75/52/13 70/63/13
f 55/49/15 66/66/15 76/67/15 56/50/15
f 49/45/16 63/62/16 73/68/16 50/56/16
f 62/59/14 51/21/14 74/54/14 72/69/14
f 92/60/17 56/50/17 76/67/17 94/70/17
f 54/34/17 92/60/17 94/70/17 65/53/17
f 21/31/17 81/30/17 92/60/17 54/34/17
f 73/71/1 93/57/1 91/1/1 50/72/1
f 9/24/2 79/23/2 89/41/2 45/73/2
f 26/74/2 85/75/2 88/5/2 33/76/2
f 45/73/2 89/41/2 85/75/2 26/74/2
f 23/51/11 81/30/11 82/8/11 24/7/11
f 11/39/8 79/23/8 80/4/8 12/3/8
f 33/76/2 88/5/2 82/8/2 20/32/2
f 50/72/1 91/1/1 80/4/1 8/25/1
usemtl Material.001
f 90/77/18 48/78/18 4/79/18 77/80/18
f 94/70/17 76/67/17 18/81/17 84/82/17
f 72/69/14 74/54/14 5/83/14 44/84/14
f 1/85/19 2/86/19 3/87/19
f 4/79/20 5/88/20 6/89/20
f 13/90/21 14/91/21 15/92/21
f 16/93/22 17/94/22 18/95/22
f 63/62/16 1/85/16 3/87/16 73/68/16
f 77/80/23 4/79/23 6/89/23 78/96/23
f 66/66/15 16/93/15 18/81/15 76/67/15
f 83/97/24 15/98/24 14/99/24 84/82/24
f 35/100/25 13/90/25 15/92/25 39/101/25
f 44/84/26 5/83/26 4/102/26 48/103/26
f 70/63/13 75/52/13 13/90/13 35/100/13
f 71/61/13 67/64/13 29/104/13 47/105/13
f 40/106/26 31/107/26 32/108/26 36/109/26
f 47/105/25 29/104/25 30/110/25 43/111/25
f 46/42/10 27/112/10 28/113/10 42/43/10
f 89/41/2 42/40/2 28/114/2 85/75/2
f 69/65/14 68/115/14 31/107/14 40/106/14
f 87/116/18 36/117/18 32/118/18 86/119/18
f 83/97/18 17/120/18 36/117/18 87/116/18
f 66/66/14 69/65/14 40/106/14 16/93/14
f 16/93/26 40/106/26 36/109/26 17/94/26
f 67/64/13 70/63/13 35/100/13 29/104/13
f 29/104/25 35/100/25 39/101/25 30/110/25
f 27/112/10 34/28/10 38/29/10 28/113/10
f 85/75/2 28/114/2 38/6/2 88/5/2
f 1/85/25 47/105/25 43/111/25 2/86/25
f 63/62/13 71/61/13 47/105/13 1/85/13
f 31/107/26 44/84/26 48/103/26 32/108/26
f 68/115/14 72/69/14 44/84/14 31/107/14
f 86/119/18 32/118/18 48/78/18 90/77/18
f 27/112/14 46/42/14 62/59/14 58/121/14
f 34/28/14 27/112/14 58/121/14 59/48/14
f 78/122/1 6/123/1 64/58/1 93/57/1
f 5/83/7 74/54/7 64/55/7 6/124/7
f 13/90/12 75/52/12 65/53/12 14/99/12
f 58/121/14 62/59/14 72/69/14 68/115/14
f 59/48/14 58/121/14 68/115/14 69/65/14
f 3/125/1 78/122/1 93/57/1 73/71/1
f 30/126/18 86/119/18 90/77/18 43/127/18
f 15/98/18 83/97/18 87/116/18 39/128/18
f 39/128/18 87/116/18 86/119/18 30/126/18
f 17/120/24 83/97/24 84/82/24 18/81/24
f 2/129/23 77/80/23 78/96/23 3/130/23
f 65/53/17 94/70/17 84/82/17 14/99/17
f 43/127/18 90/77/18 77/80/18 2/129/18
