# Blender v2.81 (sub 16) OBJ File: 'Apple.blend'
# www.blender.org
mtllib Apple.mtl
o Sphere
v 0.000000 0.647297 -0.707107
v 0.000000 0.363898 -0.923880
v 0.000000 -0.382684 -0.923880
v 0.000000 -0.856251 -0.382683
v 0.146447 0.754109 -0.353553
v 0.270598 0.647297 -0.653281
v 0.353553 0.363898 -0.853553
v 0.382683 -0.000437 -0.923880
v 0.353553 -0.382684 -0.853553
v 0.270598 -0.707107 -0.653281
v 0.146447 -0.856251 -0.353553
v 0.270598 0.754109 -0.270598
v 0.500000 0.647297 -0.500000
v 0.653281 0.363898 -0.653281
v 0.707107 -0.000437 -0.707107
v 0.653281 -0.382684 -0.653281
v 0.500000 -0.707107 -0.500000
v 0.270598 -0.856251 -0.270598
v 0.353553 0.754109 -0.146447
v 0.653281 0.647297 -0.270598
v 0.853553 0.363898 -0.353553
v 0.923879 -0.000437 -0.382683
v 0.853553 -0.382684 -0.353553
v 0.653281 -0.707107 -0.270598
v 0.353553 -0.856251 -0.146447
v 0.382683 0.754109 -0.000000
v 0.707107 0.647297 -0.000000
v 0.923879 0.363898 -0.000000
v 1.000000 -0.000437 -0.000000
v 0.923879 -0.382684 -0.000000
v 0.707107 -0.707107 -0.000000
v 0.382683 -0.856251 -0.000000
v 0.353553 0.754109 0.146446
v 0.653281 0.647297 0.270598
v 0.853553 0.363898 0.353553
v 0.923879 -0.000437 0.382683
v 0.853553 -0.382684 0.353553
v 0.653281 -0.707107 0.270598
v 0.353553 -0.856251 0.146446
v 0.270598 0.754109 0.270598
v 0.500000 0.647297 0.500000
v 0.653281 0.363898 0.653281
v 0.707106 -0.000437 0.707107
v 0.653281 -0.382684 0.653281
v 0.500000 -0.707107 0.500000
v 0.270598 -0.856251 0.270598
v 0.146446 0.754109 0.353553
v 0.270598 0.647297 0.653281
v 0.353553 0.363898 0.853553
v 0.382683 -0.000437 0.923879
v 0.353553 -0.382684 0.853553
v 0.270598 -0.707107 0.653281
v 0.146446 -0.856251 0.353553
v -0.000000 0.754109 0.382683
v -0.000000 0.647297 0.707106
v -0.000000 0.363898 0.923879
v -0.000000 -0.000437 1.000000
v -0.000000 -0.382684 0.923879
v -0.000000 -0.707107 0.707106
v -0.000000 -0.856251 0.382683
v -0.146447 0.754109 0.353553
v -0.270598 0.647297 0.653281
v -0.353554 0.363898 0.853553
v -0.382684 -0.000437 0.923879
v -0.353554 -0.382684 0.853553
v -0.270598 -0.707107 0.653281
v -0.146447 -0.856251 0.353553
v -0.270598 0.754109 0.270598
v -0.500000 0.647297 0.499999
v -0.653282 0.363898 0.653281
v -0.707107 -0.000437 0.707106
v -0.653282 -0.382684 0.653281
v -0.500000 -0.707107 0.499999
v -0.270598 -0.856251 0.270598
v -0.353553 0.754109 0.146446
v -0.653281 0.647297 0.270597
v -0.853553 0.363898 0.353553
v -0.923879 -0.000437 0.382683
v -0.853553 -0.382684 0.353553
v -0.653281 -0.707107 0.270597
v -0.353553 -0.856251 0.146446
v -0.382683 0.754109 -0.000000
v -0.707106 0.647297 -0.000000
v -0.923879 0.363898 -0.000001
v -1.000000 -0.000437 -0.000001
v -0.923879 -0.382684 -0.000001
v -0.707106 -0.707107 -0.000000
v -0.382683 -0.856251 -0.000000
v -0.353553 0.754109 -0.146447
v -0.653281 0.647297 -0.270598
v -0.853553 0.363898 -0.353554
v -0.923879 -0.000437 -0.382684
v -0.853553 -0.382684 -0.353554
v -0.653281 -0.707107 -0.270598
v -0.353553 -0.856251 -0.146447
v -0.270598 0.754109 -0.270598
v -0.499999 0.647297 -0.500000
v -0.653281 0.363898 -0.653282
v -0.707106 -0.000437 -0.707107
v -0.653281 -0.382684 -0.653282
v -0.499999 -0.707107 -0.500000
v -0.270598 -0.856251 -0.270598
v -0.146446 0.754109 -0.353553
v -0.270598 0.647297 -0.653281
v -0.353553 0.363898 -0.853553
v -0.382683 -0.000437 -0.923880
v -0.353553 -0.382684 -0.853553
v -0.270598 -0.707107 -0.653281
v -0.146446 -0.856251 -0.353553
v -0.000000 0.503435 -0.000000
v 0.000000 0.754109 -0.382683
v 0.000001 -0.000437 -1.000000
v 0.000000 -0.707107 -0.707106
v 0.000000 -0.750370 -0.000000
vt 0.246960 0.295804
vt 0.283558 0.234462
vt 0.354681 0.267117
vt 0.312655 0.342274
vt 0.314109 0.170777
vt 0.338607 0.100943
vt 0.372497 0.107090
vt 0.372049 0.186053
vt 0.084081 0.452441
vt 0.144099 0.406844
vt 0.177541 0.456943
vt 0.098291 0.482943
vt 0.199612 0.353508
vt 0.253136 0.407877
vt 0.372497 0.000172
vt 0.009831 0.499573
vt 0.373290 0.409833
vt 0.372842 0.329320
vt 0.429688 0.343580
vt 0.406075 0.414152
vt 0.392316 0.243256
vt 0.433101 0.163663
vt 0.501244 0.210772
vt 0.461833 0.274287
vt 0.491607 0.099271
vt 0.563466 0.053741
vt 0.598040 0.105308
vt 0.546426 0.154939
vt 0.641842 0.028211
vt 0.743954 0.000172
vt 0.657423 0.059294
vt 0.382444 0.499828
vt 0.681077 0.083510
vt 0.434863 0.428823
vt 0.519934 0.309510
vt 0.477374 0.369277
vt 0.599946 0.196937
vt 0.560857 0.251813
vt 0.639111 0.142264
vt 0.573938 0.351437
vt 0.518212 0.405813
vt 0.657632 0.231705
vt 0.620616 0.292413
vt 0.710635 0.099514
vt 0.686864 0.168387
vt 0.457579 0.452147
vt 0.552486 0.456522
vt 0.472027 0.483035
vt 0.689277 0.338183
vt 0.629253 0.406120
vt 0.743542 0.182941
vt 0.726996 0.261733
vt 0.743954 0.105520
vt 0.392316 0.743256
vt 0.433101 0.663663
vt 0.501244 0.710772
vt 0.461833 0.774287
vt 0.491607 0.599271
vt 0.563466 0.553741
vt 0.598040 0.605308
vt 0.546426 0.654939
vt 0.641842 0.528211
vt 0.743955 0.500172
vt 0.657423 0.559294
vt 0.382443 0.999828
vt 0.373290 0.909833
vt 0.406075 0.914152
vt 0.372842 0.829320
vt 0.429688 0.843580
vt 0.434863 0.928823
vt 0.519934 0.809510
vt 0.477374 0.869277
vt 0.599946 0.696936
vt 0.560857 0.751813
vt 0.681077 0.583510
vt 0.639111 0.642264
vt 0.657632 0.731705
vt 0.620616 0.792413
vt 0.710635 0.599514
vt 0.686864 0.668387
vt 0.518212 0.905813
vt 0.457579 0.952147
vt 0.573938 0.851437
vt 0.552486 0.956522
vt 0.472026 0.983035
vt 0.689277 0.838183
vt 0.629253 0.906120
vt 0.743542 0.682941
vt 0.726996 0.761733
vt 0.743954 0.605521
vt 0.118937 0.599016
vt 0.190796 0.553486
vt 0.225371 0.605053
vt 0.173756 0.654684
vt 0.269172 0.527956
vt 0.371285 0.499918
vt 0.284753 0.559040
vt 0.009774 0.999573
vt 0.000620 0.909579
vt 0.033405 0.913897
vt 0.000172 0.829065
vt 0.019647 0.743002
vt 0.089163 0.774032
vt 0.057018 0.843325
vt 0.060431 0.663409
vt 0.128575 0.710518
vt 0.062193 0.928568
vt 0.147265 0.809255
vt 0.104705 0.869023
vt 0.227276 0.696682
vt 0.188188 0.751558
vt 0.308407 0.583255
vt 0.266441 0.642009
vt 0.337966 0.599259
vt 0.314194 0.668132
vt 0.145542 0.905559
vt 0.084909 0.951892
vt 0.247947 0.792159
vt 0.201268 0.851183
vt 0.284962 0.731450
vt 0.179817 0.956267
vt 0.099357 0.982780
vt 0.316607 0.837928
vt 0.256584 0.905865
vt 0.370872 0.682686
vt 0.354326 0.761479
vt 0.371285 0.605266
vt 0.268946 0.028637
vt 0.284735 0.060113
vt 0.000715 0.410599
vt 0.033171 0.414871
vt 0.000172 0.330826
vt 0.019294 0.245347
vt 0.088529 0.276218
vt 0.056595 0.345004
vt 0.059546 0.165877
vt 0.117603 0.101008
vt 0.172727 0.156727
vt 0.127770 0.212818
vt 0.189728 0.054679
vt 0.224674 0.106636
vt 0.146356 0.311444
vt 0.103839 0.370572
vt 0.226215 0.198678
vt 0.187688 0.254054
vt 0.308667 0.084645
vt 0.265992 0.143964
vt 0.061645 0.429391
vn 0.1911 0.2007 -0.9608
vn 0.0621 0.9480 -0.3121
vn 0.0828 -0.9055 -0.4163
vn 0.1915 -0.1917 -0.9626
vn 0.1561 0.6001 -0.7846
vn -0.1084 0.8316 0.5447
vn -0.0530 -0.9624 0.2663
vn 0.1632 -0.5481 -0.8203
vn 0.2358 -0.9055 -0.3529
vn 0.5453 -0.1917 -0.8161
vn 0.4444 0.6001 -0.6651
vn -0.3086 0.8316 0.4618
vn -0.1508 -0.9624 0.2257
vn 0.4647 -0.5481 -0.6954
vn 0.5443 0.2007 -0.8145
vn 0.1768 0.9480 -0.2646
vn -0.4618 0.8316 0.3086
vn -0.2257 -0.9624 0.1508
vn 0.6954 -0.5481 -0.4647
vn 0.8145 0.2007 -0.5443
vn 0.2646 0.9480 -0.1768
vn 0.3529 -0.9055 -0.2358
vn 0.8161 -0.1917 -0.5453
vn 0.6651 0.6001 -0.4444
vn 0.8203 -0.5481 -0.1632
vn 0.9608 0.2007 -0.1911
vn 0.3121 0.9480 -0.0621
vn 0.4163 -0.9055 -0.0828
vn 0.9626 -0.1917 -0.1915
vn 0.7846 0.6001 -0.1561
vn -0.5447 0.8316 0.1084
vn -0.2663 -0.9624 0.0530
vn 0.4163 -0.9055 0.0828
vn 0.9626 -0.1917 0.1915
vn 0.7846 0.6001 0.1561
vn -0.5447 0.8316 -0.1084
vn -0.2663 -0.9624 -0.0530
vn 0.8203 -0.5481 0.1632
vn 0.9608 0.2007 0.1911
vn 0.3121 0.9480 0.0621
vn 0.8161 -0.1917 0.5453
vn 0.6651 0.6001 0.4444
vn -0.4618 0.8316 -0.3086
vn -0.2257 -0.9624 -0.1508
vn 0.6954 -0.5481 0.4647
vn 0.8145 0.2007 0.5443
vn 0.2646 0.9480 0.1768
vn 0.3529 -0.9055 0.2358
vn -0.1508 -0.9624 -0.2257
vn 0.4647 -0.5481 0.6954
vn 0.5443 0.2007 0.8145
vn 0.1768 0.9480 0.2646
vn 0.2358 -0.9055 0.3529
vn 0.5453 -0.1917 0.8161
vn 0.4444 0.6001 0.6651
vn -0.3086 0.8316 -0.4618
vn 0.1911 0.2007 0.9608
vn 0.0621 0.9480 0.3121
vn 0.0828 -0.9055 0.4163
vn 0.1915 -0.1917 0.9626
vn 0.1561 0.6001 0.7846
vn -0.1084 0.8316 -0.5447
vn -0.0530 -0.9624 -0.2663
vn 0.1632 -0.5481 0.8203
vn -0.0828 -0.9055 0.4163
vn -0.1915 -0.1917 0.9626
vn -0.1561 0.6001 0.7846
vn 0.1084 0.8316 -0.5447
vn 0.0530 -0.9624 -0.2663
vn -0.1632 -0.5481 0.8203
vn -0.1911 0.2007 0.9608
vn -0.0621 0.9480 0.3121
vn -0.4444 0.6001 0.6651
vn 0.3086 0.8316 -0.4618
vn 0.1508 -0.9624 -0.2257
vn -0.4647 -0.5481 0.6954
vn -0.5443 0.2007 0.8145
vn -0.1768 0.9480 0.2646
vn -0.2358 -0.9055 0.3529
vn -0.5453 -0.1917 0.8160
vn 0.2257 -0.9624 -0.1508
vn -0.6954 -0.5481 0.4647
vn -0.8145 0.2007 0.5443
vn -0.2646 0.9480 0.1768
vn -0.3529 -0.9055 0.2358
vn -0.8161 -0.1917 0.5453
vn -0.6651 0.6001 0.4444
vn 0.4618 0.8316 -0.3086
vn -0.3121 0.9480 0.0621
vn -0.4163 -0.9055 0.0828
vn -0.9626 -0.1917 0.1915
vn -0.7846 0.6001 0.1561
vn 0.5447 0.8316 -0.1084
vn 0.2663 -0.9624 -0.0530
vn -0.8203 -0.5481 0.1632
vn -0.9608 0.2007 0.1911
vn -0.4163 -0.9055 -0.0828
vn -0.9626 -0.1917 -0.1915
vn -0.7846 0.6001 -0.1561
vn 0.5447 0.8316 0.1084
vn 0.2663 -0.9624 0.0530
vn -0.8203 -0.5481 -0.1632
vn -0.9608 0.2007 -0.1911
vn -0.3121 0.9480 -0.0621
vn 0.4618 0.8316 0.3086
vn 0.2257 -0.9624 0.1508
vn -0.6954 -0.5481 -0.4647
vn -0.8145 0.2007 -0.5443
vn -0.2646 0.9480 -0.1768
vn -0.3529 -0.9055 -0.2358
vn -0.8160 -0.1917 -0.5453
vn -0.6651 0.6001 -0.4444
vn -0.4647 -0.5481 -0.6954
vn -0.5443 0.2007 -0.8145
vn -0.1768 0.9480 -0.2646
vn -0.2358 -0.9055 -0.3529
vn -0.5453 -0.1917 -0.8161
vn -0.4444 0.6001 -0.6651
vn 0.3086 0.8316 0.4618
vn 0.1508 -0.9624 0.2257
vn -0.0828 -0.9055 -0.4163
vn -0.1915 -0.1917 -0.9626
vn -0.1561 0.6001 -0.7846
vn 0.1084 0.8316 0.5447
vn 0.0530 -0.9624 0.2663
vn -0.1632 -0.5481 -0.8203
vn -0.1911 0.2007 -0.9608
vn -0.0621 0.9480 -0.3121
usemtl None
s off
f 112/1/1 2/2/1 7/3/1 8/4/1
f 1/5/2 111/6/2 5/7/2 6/8/2
f 4/9/3 113/10/3 10/11/3 11/12/3
f 3/13/4 112/1/4 8/4/4 9/14/4
f 2/2/5 1/5/5 6/8/5 7/3/5
f 111/6/6 110/15/6 5/7/6
f 114/16/7 4/9/7 11/12/7
f 113/10/8 3/13/8 9/14/8 10/11/8
f 11/17/9 10/18/9 17/19/9 18/20/9
f 9/21/10 8/22/10 15/23/10 16/24/10
f 7/25/11 6/26/11 13/27/11 14/28/11
f 5/29/12 110/30/12 12/31/12
f 114/32/13 11/17/13 18/20/13
f 10/18/14 9/21/14 16/24/14 17/19/14
f 8/22/15 7/25/15 14/28/15 15/23/15
f 6/26/16 5/29/16 12/31/16 13/27/16
f 12/31/17 110/30/17 19/33/17
f 114/32/18 18/20/18 25/34/18
f 17/19/19 16/24/19 23/35/19 24/36/19
f 15/23/20 14/28/20 21/37/20 22/38/20
f 13/27/21 12/31/21 19/33/21 20/39/21
f 18/20/22 17/19/22 24/36/22 25/34/22
f 16/24/23 15/23/23 22/38/23 23/35/23
f 14/28/24 13/27/24 20/39/24 21/37/24
f 24/36/25 23/35/25 30/40/25 31/41/25
f 22/38/26 21/37/26 28/42/26 29/43/26
f 20/39/27 19/33/27 26/44/27 27/45/27
f 25/34/28 24/36/28 31/41/28 32/46/28
f 23/35/29 22/38/29 29/43/29 30/40/29
f 21/37/30 20/39/30 27/45/30 28/42/30
f 19/33/31 110/30/31 26/44/31
f 114/32/32 25/34/32 32/46/32
f 32/46/33 31/41/33 38/47/33 39/48/33
f 30/40/34 29/43/34 36/49/34 37/50/34
f 28/42/35 27/45/35 34/51/35 35/52/35
f 26/44/36 110/30/36 33/53/36
f 114/32/37 32/46/37 39/48/37
f 31/41/38 30/40/38 37/50/38 38/47/38
f 29/43/39 28/42/39 35/52/39 36/49/39
f 27/45/40 26/44/40 33/53/40 34/51/40
f 37/54/41 36/55/41 43/56/41 44/57/41
f 35/58/42 34/59/42 41/60/42 42/61/42
f 33/62/43 110/63/43 40/64/43
f 114/65/44 39/66/44 46/67/44
f 38/68/45 37/54/45 44/57/45 45/69/45
f 36/55/46 35/58/46 42/61/46 43/56/46
f 34/59/47 33/62/47 40/64/47 41/60/47
f 39/66/48 38/68/48 45/69/48 46/67/48
f 114/65/49 46/67/49 53/70/49
f 45/69/50 44/57/50 51/71/50 52/72/50
f 43/56/51 42/61/51 49/73/51 50/74/51
f 41/60/52 40/64/52 47/75/52 48/76/52
f 46/67/53 45/69/53 52/72/53 53/70/53
f 44/57/54 43/56/54 50/74/54 51/71/54
f 42/61/55 41/60/55 48/76/55 49/73/55
f 40/64/56 110/63/56 47/75/56
f 50/74/57 49/73/57 56/77/57 57/78/57
f 48/76/58 47/75/58 54/79/58 55/80/58
f 53/70/59 52/72/59 59/81/59 60/82/59
f 51/71/60 50/74/60 57/78/60 58/83/60
f 49/73/61 48/76/61 55/80/61 56/77/61
f 47/75/62 110/63/62 54/79/62
f 114/65/63 53/70/63 60/82/63
f 52/72/64 51/71/64 58/83/64 59/81/64
f 60/82/65 59/81/65 66/84/65 67/85/65
f 58/83/66 57/78/66 64/86/66 65/87/66
f 56/77/67 55/80/67 62/88/67 63/89/67
f 54/79/68 110/63/68 61/90/68
f 114/65/69 60/82/69 67/85/69
f 59/81/70 58/83/70 65/87/70 66/84/70
f 57/78/71 56/77/71 63/89/71 64/86/71
f 55/80/72 54/79/72 61/90/72 62/88/72
f 63/91/73 62/92/73 69/93/73 70/94/73
f 61/95/74 110/96/74 68/97/74
f 114/98/75 67/99/75 74/100/75
f 66/101/76 65/102/76 72/103/76 73/104/76
f 64/105/77 63/91/77 70/94/77 71/106/77
f 62/92/78 61/95/78 68/97/78 69/93/78
f 67/99/79 66/101/79 73/104/79 74/100/79
f 65/102/80 64/105/80 71/106/80 72/103/80
f 114/98/81 74/100/81 81/107/81
f 73/104/82 72/103/82 79/108/82 80/109/82
f 71/106/83 70/94/83 77/110/83 78/111/83
f 69/93/84 68/97/84 75/112/84 76/113/84
f 74/100/85 73/104/85 80/109/85 81/107/85
f 72/103/86 71/106/86 78/111/86 79/108/86
f 70/94/87 69/93/87 76/113/87 77/110/87
f 68/97/88 110/96/88 75/112/88
f 76/113/89 75/112/89 82/114/89 83/115/89
f 81/107/90 80/109/90 87/116/90 88/117/90
f 79/108/91 78/111/91 85/118/91 86/119/91
f 77/110/92 76/113/92 83/115/92 84/120/92
f 75/112/93 110/96/93 82/114/93
f 114/98/94 81/107/94 88/117/94
f 80/109/95 79/108/95 86/119/95 87/116/95
f 78/111/96 77/110/96 84/120/96 85/118/96
f 88/117/97 87/116/97 94/121/97 95/122/97
f 86/119/98 85/118/98 92/123/98 93/124/98
f 84/120/99 83/115/99 90/125/99 91/126/99
f 82/114/100 110/96/100 89/127/100
f 114/98/101 88/117/101 95/122/101
f 87/116/102 86/119/102 93/124/102 94/121/102
f 85/118/103 84/120/103 91/126/103 92/123/103
f 83/115/104 82/114/104 89/127/104 90/125/104
f 89/128/105 110/15/105 96/129/105
f 114/16/106 95/130/106 102/131/106
f 94/132/107 93/133/107 100/134/107 101/135/107
f 92/136/108 91/137/108 98/138/108 99/139/108
f 90/140/109 89/128/109 96/129/109 97/141/109
f 95/130/110 94/132/110 101/135/110 102/131/110
f 93/133/111 92/136/111 99/139/111 100/134/111
f 91/137/112 90/140/112 97/141/112 98/138/112
f 101/135/113 100/134/113 107/142/113 108/143/113
f 99/139/114 98/138/114 105/144/114 106/145/114
f 97/141/115 96/129/115 103/146/115 104/147/115
f 102/131/116 101/135/116 108/143/116 109/148/116
f 100/134/117 99/139/117 106/145/117 107/142/117
f 98/138/118 97/141/118 104/147/118 105/144/118
f 96/129/119 110/15/119 103/146/119
f 114/16/120 102/131/120 109/148/120
f 109/148/121 108/143/121 113/10/121 4/9/121
f 107/142/122 106/145/122 112/1/122 3/13/122
f 105/144/123 104/147/123 1/5/123 2/2/123
f 103/146/124 110/15/124 111/6/124
f 114/16/125 109/148/125 4/9/125
f 108/143/126 107/142/126 3/13/126 113/10/126
f 106/145/127 105/144/127 2/2/127 112/1/127
f 104/147/128 103/146/128 111/6/128 1/5/128
o Cylinder
v 0.000727 0.512486 -0.029281
v -0.044735 0.815378 -0.031558
v 0.020442 0.515733 -0.019254
v -0.028236 0.821844 -0.021400
v 0.027341 0.517163 0.001962
v -0.023909 0.825545 -0.001755
v 0.017382 0.515938 0.021940
v -0.034287 0.824312 0.015868
v -0.003600 0.512776 0.028976
v -0.053292 0.818868 0.021147
v -0.023316 0.509529 0.018949
v -0.069790 0.812401 0.010988
v -0.030215 0.508099 -0.002267
v -0.074118 0.808700 -0.008656
v -0.020256 0.509324 -0.022245
v -0.063739 0.809933 -0.026280
v -0.195814 1.023052 -0.022125
v -0.206535 1.012655 -0.032550
v -0.196037 1.028239 -0.004494
v -0.207075 1.025177 0.010016
v -0.222462 1.015660 0.012905
v -0.233183 1.005264 0.002480
v -0.232960 1.000077 -0.015152
v -0.221922 1.003139 -0.029662
v -0.413919 1.128308 0.005173
v -0.427328 1.109724 -0.012035
v -0.417148 1.136590 0.032655
v -0.435125 1.129719 0.054313
v -0.457318 1.111719 0.057460
v -0.470728 1.093135 0.040252
v -0.467499 1.084853 0.012770
v -0.449522 1.091724 -0.008888
v -0.377767 1.066385 -0.011602
v -0.360256 1.079472 -0.014351
v -0.393204 1.067929 0.026443
v -0.391414 1.061604 0.005295
v -0.364577 1.094743 0.036705
v -0.382088 1.081656 0.039454
v -0.349140 1.093198 -0.001341
v -0.350930 1.099524 0.019808
vt 0.802264 0.227337
vt 0.773339 0.289204
vt 0.768627 0.287957
vt 0.797446 0.224940
vt 0.782074 0.935065
vt 0.763117 0.860638
vt 0.766414 0.859843
vt 0.785615 0.935054
vt 0.771093 0.858401
vt 0.790732 0.933601
vt 0.774413 0.857156
vt 0.794427 0.931559
vt 0.872370 0.662511
vt 0.844127 0.596463
vt 0.848854 0.595308
vt 0.877219 0.660200
vt 0.852363 0.596050
vt 0.881063 0.660140
vt 0.857671 0.775076
vt 0.862358 0.776347
vt 0.862588 0.839930
vt 0.858321 0.838823
vt 0.882040 0.712791
vt 0.876923 0.711637
vt 0.854273 0.772833
vt 0.873145 0.708655
vt 0.872918 0.705593
vt 0.876376 0.704245
vt 0.881493 0.705399
vt 0.885272 0.708381
vt 0.885498 0.711443
vt 0.789408 0.393014
vt 0.793404 0.393928
vt 0.801391 0.411293
vt 0.796112 0.410403
vt 0.764950 0.288864
vt 0.771109 0.353433
vt 0.768236 0.355308
vt 0.849020 0.531026
vt 0.853304 0.531599
vt 0.855460 0.837928
vt 0.775411 0.352943
vt 0.767093 0.793448
vt 0.771341 0.792413
vt 0.865588 0.775902
vt 0.865761 0.840600
vt 0.840952 0.598837
vt 0.845660 0.531926
vt 0.789519 0.412225
vt 0.802264 0.414373
vt 0.798220 0.417840
vt 0.791627 0.419663
vt 0.786348 0.418773
vt 0.785475 0.415692
vt 0.872226 0.494180
vt 0.869227 0.491852
vt 0.877308 0.473487
vt 0.881063 0.476675
vt 0.864162 0.490614
vt 0.859999 0.491189
vt 0.865281 0.471999
vt 0.870771 0.471550
vt 0.781091 0.396697
vt 0.784307 0.394161
vt 0.872920 0.877678
vt 0.878061 0.878881
vt 0.885498 0.896462
vt 0.878803 0.894972
vt 0.786691 0.756863
vt 0.781575 0.757894
vt 0.787767 0.741156
vt 0.794427 0.739943
vt 0.856003 0.533309
vt 0.778623 0.354124
vn 0.4721 0.0666 -0.8790
vn 0.9481 0.1515 -0.2795
vn 0.8652 0.1520 0.4779
vn 0.2803 0.0679 0.9575
vn -0.4755 -0.0523 0.8782
vn -0.9509 -0.1358 0.2783
vn -0.6565 -0.5543 -0.5116
vn -0.8679 -0.1344 -0.4782
vn -0.2837 -0.0518 -0.9575
vn 0.1544 -0.9879 0.0164
vn -0.0737 -0.0942 -0.9928
vn 0.7456 0.6251 -0.2311
vn -0.4301 -0.3310 0.8399
vn -0.1671 -0.1479 -0.9748
vn 0.4211 0.3445 -0.8391
vn 0.6493 0.5657 0.5083
vn -0.7500 -0.6200 0.2304
vn 0.1572 0.1697 0.9729
vn -0.6272 0.7223 -0.2914
vn -0.2589 -0.9321 0.2533
vn 0.2045 -0.0761 0.9759
vn 0.4468 0.8685 -0.2148
vn -0.3020 -0.8153 -0.4941
vn -0.0772 -0.6491 0.7568
vn 0.4756 0.6544 0.5879
vn 0.2281 0.5671 -0.7915
vn 0.1701 0.6031 -0.7793
vn 0.4206 0.7457 0.5168
vn -0.1311 -0.6272 0.7678
vn -0.3729 -0.7881 -0.4898
vn 0.3743 0.8941 -0.2460
vn 0.1668 0.0031 0.9860
vn -0.3204 -0.9125 0.2543
vn -0.1363 -0.0485 -0.9895
usemtl None
s off
f 115/149/129 116/150/129 118/151/129 117/152/129
f 117/153/130 118/154/130 120/155/130 119/156/130
f 119/156/131 120/155/131 122/157/131 121/158/131
f 121/158/132 122/157/132 124/159/132 123/160/132
f 123/161/133 124/162/133 126/163/133 125/164/133
f 125/164/134 126/163/134 128/165/134 127/166/134
f 130/167/135 128/168/135 137/169/135 138/170/135
f 127/171/136 128/168/136 130/167/136 129/172/136
f 129/172/137 130/167/137 116/173/137 115/174/137
f 115/174/138 117/175/138 119/176/138 121/177/138 123/178/138 125/179/138 127/171/138 129/172/138
f 148/180/139 147/181/139 146/182/139 140/183/139
f 120/184/140 118/151/140 131/185/140 133/186/140
f 126/163/141 124/162/141 135/187/141 136/188/141
f 116/173/142 130/167/142 138/170/142 132/189/142
f 118/151/143 116/150/143 132/190/143 131/185/143
f 122/157/144 120/155/144 133/191/144 134/192/144
f 128/168/145 126/193/145 136/194/145 137/169/145
f 124/162/146 122/195/146 134/196/146 135/187/146
f 139/197/147 140/183/147 146/182/147 145/198/147 144/199/147 143/200/147 142/201/147 141/202/147
f 150/203/148 149/204/148 144/205/148 145/206/148
f 152/207/149 151/208/149 142/209/149 143/210/149
f 154/211/150 153/212/150 139/197/150 141/202/150
f 147/213/151 150/214/151 145/215/151 146/216/151
f 149/204/152 152/207/152 143/210/152 144/205/152
f 151/217/153 154/218/153 141/219/153 142/220/153
f 153/212/154 148/180/154 140/183/154 139/197/154
f 131/185/155 132/190/155 148/180/155 153/212/155
f 134/192/156 133/191/156 154/218/156 151/217/156
f 136/188/157 135/187/157 152/207/157 149/204/157
f 138/170/158 137/169/158 150/214/158 147/213/158
f 133/186/159 131/185/159 153/212/159 154/211/159
f 135/187/160 134/196/160 151/208/160 152/207/160
f 137/221/161 136/188/161 149/204/161 150/203/161
f 132/190/162 138/222/162 147/181/162 148/180/162
