# Blender v2.80 (sub 75) OBJ File: 'Ladder.blend'
# www.blender.org
mtllib Ladder.mtl
o LadderLong_Cylinder.001
v -0.904933 -3.000000 -0.065661
v -0.904933 3.000000 -0.057589
v -0.872102 -3.000000 -0.056864
v -0.876138 3.000000 -0.049874
v -0.848069 -3.000000 -0.032830
v -0.855059 3.000000 -0.028795
v -0.839272 -3.000000 0.000000
v -0.847343 3.000000 0.000000
v -0.848069 -3.000000 0.032830
v -0.855059 3.000000 0.028795
v -0.872102 -3.000000 0.056864
v -0.876138 3.000000 0.049874
v -0.904933 -3.000000 0.065661
v -0.904933 3.000000 0.057589
v -0.937763 -3.000000 0.056864
v -0.933727 3.000000 0.049874
v -0.961797 -3.000000 0.032831
v -0.954807 3.000000 0.028795
v -0.970594 -3.000000 0.000000
v -0.962522 3.000000 0.000000
v -0.961797 -3.000000 -0.032830
v -0.954807 3.000000 -0.028795
v -0.937763 -3.000000 -0.056864
v -0.933727 3.000000 -0.049874
v -0.906593 -2.000740 -0.046623
v -0.902237 -0.998294 -0.046503
v -0.908466 0.003609 -0.053271
v -0.910606 1.014215 -0.043208
v -0.901419 1.992979 -0.047463
v -0.877929 1.995344 -0.039542
v -0.887307 1.010283 -0.041046
v -0.881440 0.000479 -0.048074
v -0.879731 -0.994270 -0.038791
v -0.883184 -2.003091 -0.041163
v -0.861674 1.998956 -0.021025
v -0.868730 1.003595 -0.027886
v -0.860708 -0.002778 -0.029996
v -0.863978 -0.991781 -0.020685
v -0.865602 -2.004613 -0.024674
v -0.857011 2.002848 0.003126
v -0.859854 0.995943 -0.007254
v -0.851827 -0.005292 -0.003880
v -0.859199 -0.991494 0.002963
v -0.858559 -2.004900 -0.001573
v -0.865188 2.005977 0.026439
v -0.863056 0.989379 0.015322
v -0.857176 -0.006387 0.023275
v -0.866674 -0.993486 0.025818
v -0.863942 -2.003874 0.021949
v -0.884014 2.007504 0.042668
v -0.877480 0.985661 0.033792
v -0.875320 -0.005771 0.044193
v -0.884401 -0.997224 0.041754
v -0.880308 -2.001809 0.039590
v -0.908446 2.007021 0.047463
v -0.899259 0.985785 0.043208
v -0.901400 -0.003609 0.053271
v -0.907629 -1.001706 0.046503
v -0.903273 -1.999260 0.046623
v -0.931936 2.004656 0.039542
v -0.922559 0.989717 0.041046
v -0.928426 -0.000479 0.048074
v -0.930134 -1.005730 0.038791
v -0.926682 -1.996909 0.041163
v -0.948191 2.001044 0.021025
v -0.941135 0.996405 0.027886
v -0.949157 0.002778 0.029996
v -0.945887 -1.008220 0.020685
v -0.944263 -1.995386 0.024674
v -0.952855 1.997152 -0.003126
v -0.950012 1.004056 0.007254
v -0.958038 0.005292 0.003880
v -0.950666 -1.008506 -0.002963
v -0.951306 -1.995100 0.001573
v -0.944678 1.994023 -0.026439
v -0.946809 1.010621 -0.015322
v -0.952690 0.006387 -0.023275
v -0.943191 -1.006514 -0.025818
v -0.945923 -1.996126 -0.021949
v -0.925851 1.992496 -0.042668
v -0.932386 1.014339 -0.033792
v -0.934545 0.005771 -0.044193
v -0.925465 -1.002776 -0.041754
v -0.929557 -1.998191 -0.039590
v 0.000000 -3.000000 -0.065661
v 0.000000 3.000000 -0.057589
v 0.032830 -3.000000 -0.056864
v 0.028795 3.000000 -0.049874
v 0.056864 -3.000000 -0.032830
v 0.049874 3.000000 -0.028795
v 0.065661 -3.000000 0.000000
v 0.057589 3.000000 0.000000
v 0.056864 -3.000000 0.032830
v 0.049874 3.000000 0.028795
v 0.032830 -3.000000 0.056864
v 0.028795 3.000000 0.049874
v 0.000000 -3.000000 0.065661
v 0.000000 3.000000 0.057589
v -0.032830 -3.000000 0.056864
v -0.028795 3.000000 0.049874
v -0.056864 -3.000000 0.032831
v -0.049874 3.000000 0.028795
v -0.065661 -3.000000 0.000000
v -0.057589 3.000000 0.000000
v -0.056864 -3.000000 -0.032830
v -0.049874 3.000000 -0.028795
v -0.032831 -3.000000 -0.056864
v -0.028795 3.000000 -0.049874
v -0.001660 -2.000740 -0.046623
v 0.002696 -0.998294 -0.046503
v -0.003533 0.003609 -0.053271
v -0.005674 1.014215 -0.043208
v 0.003513 1.992979 -0.047463
v 0.027004 1.995344 -0.039542
v 0.017626 1.010283 -0.041046
v 0.023493 0.000479 -0.048074
v 0.025201 -0.994270 -0.038791
v 0.021749 -2.003091 -0.041163
v 0.043258 1.998956 -0.021025
v 0.036203 1.003595 -0.027886
v 0.044224 -0.002778 -0.029996
v 0.040954 -0.991781 -0.020685
v 0.039331 -2.004613 -0.024674
v 0.047922 2.002848 0.003126
v 0.045079 0.995943 -0.007254
v 0.053106 -0.005292 -0.003880
v 0.045734 -0.991494 0.002963
v 0.046373 -2.004900 -0.001573
v 0.039745 2.005977 0.026439
v 0.041876 0.989379 0.015322
v 0.047757 -0.006387 0.023275
v 0.038259 -0.993486 0.025818
v 0.040991 -2.003874 0.021949
v 0.020918 2.007504 0.042668
v 0.027453 0.985661 0.033792
v 0.029612 -0.005771 0.044193
v 0.020532 -0.997224 0.041754
v 0.024624 -2.001809 0.039590
v -0.003513 2.007021 0.047463
v 0.005674 0.985785 0.043208
v 0.003533 -0.003609 0.053271
v -0.002696 -1.001706 0.046503
v 0.001660 -1.999260 0.046623
v -0.027004 2.004656 0.039542
v -0.017626 0.989717 0.041046
v -0.023493 -0.000479 0.048074
v -0.025201 -1.005730 0.038791
v -0.021749 -1.996909 0.041163
v -0.043258 2.001044 0.021025
v -0.036203 0.996405 0.027886
v -0.044224 0.002778 0.029996
v -0.040954 -1.008220 0.020685
v -0.039330 -1.995386 0.024674
v -0.047922 1.997152 -0.003126
v -0.045079 1.004056 0.007254
v -0.053106 0.005292 0.003880
v -0.045734 -1.008506 -0.002963
v -0.046373 -1.995100 0.001573
v -0.039745 1.994023 -0.026439
v -0.041876 1.010621 -0.015322
v -0.047757 0.006387 -0.023275
v -0.038259 -1.006514 -0.025818
v -0.040991 -1.996126 -0.021949
v -0.020918 1.992496 -0.042668
v -0.027453 1.014339 -0.033792
v -0.029612 0.005771 -0.044193
v -0.020532 -1.002776 -0.041754
v -0.024624 -1.998191 -0.039590
vt 1.000000 0.916667
vt 1.000000 1.000000
vt 0.916667 1.000000
vt 0.916667 0.916667
vt 0.833333 1.000000
vt 0.833333 0.916667
vt 0.750000 1.000000
vt 0.750000 0.916667
vt 0.666667 1.000000
vt 0.666667 0.916667
vt 0.583333 1.000000
vt 0.583333 0.916667
vt 0.500000 1.000000
vt 0.500000 0.916667
vt 0.416667 1.000000
vt 0.416667 0.916667
vt 0.333333 1.000000
vt 0.333333 0.916667
vt 0.250000 1.000000
vt 0.250000 0.916667
vt 0.166667 1.000000
vt 0.166667 0.916667
vt 0.370000 0.457846
vt 0.250000 0.490000
vt 0.130000 0.457846
vt 0.042154 0.370000
vt 0.010000 0.250000
vt 0.042154 0.130000
vt 0.130000 0.042154
vt 0.250000 0.010000
vt 0.370000 0.042154
vt 0.457846 0.130000
vt 0.490000 0.250000
vt 0.457846 0.370000
vt 0.083333 1.000000
vt 0.083333 0.916667
vt 0.000000 1.000000
vt 0.000000 0.916667
vt 0.750000 0.490000
vt 0.870000 0.457846
vt 0.957846 0.370000
vt 0.990000 0.250000
vt 0.957846 0.130000
vt 0.870000 0.042154
vt 0.750000 0.010000
vt 0.630000 0.042154
vt 0.542154 0.130000
vt 0.510000 0.250000
vt 0.542154 0.370000
vt 0.630000 0.457846
vt 0.083333 0.500000
vt 0.083333 0.583333
vt 0.000000 0.583333
vt 0.000000 0.500000
vt 0.083333 0.666667
vt 0.000000 0.666667
vt 0.083333 0.750000
vt 0.000000 0.750000
vt 0.083333 0.833333
vt 0.000000 0.833333
vt 0.166667 0.500000
vt 0.166667 0.583333
vt 0.166667 0.666667
vt 0.166667 0.750000
vt 0.166667 0.833333
vt 0.250000 0.500000
vt 0.250000 0.583333
vt 0.250000 0.666667
vt 0.250000 0.750000
vt 0.250000 0.833333
vt 0.333333 0.500000
vt 0.333333 0.583333
vt 0.333333 0.666667
vt 0.333333 0.750000
vt 0.333333 0.833333
vt 0.416667 0.500000
vt 0.416667 0.583333
vt 0.416667 0.666667
vt 0.416667 0.750000
vt 0.416667 0.833333
vt 0.500000 0.500000
vt 0.500000 0.583333
vt 0.500000 0.666667
vt 0.500000 0.750000
vt 0.500000 0.833333
vt 0.583333 0.500000
vt 0.583333 0.583333
vt 0.583333 0.666667
vt 0.583333 0.750000
vt 0.583333 0.833333
vt 0.666667 0.500000
vt 0.666667 0.583333
vt 0.666667 0.666667
vt 0.666667 0.750000
vt 0.666667 0.833333
vt 0.750000 0.500000
vt 0.750000 0.583333
vt 0.750000 0.666667
vt 0.750000 0.750000
vt 0.750000 0.833333
vt 0.833333 0.500000
vt 0.833333 0.583333
vt 0.833333 0.666667
vt 0.833333 0.750000
vt 0.833333 0.833333
vt 0.916667 0.500000
vt 0.916667 0.583333
vt 0.916667 0.666667
vt 0.916667 0.750000
vt 0.916667 0.833333
vt 1.000000 0.500000
vt 1.000000 0.583333
vt 1.000000 0.666667
vt 1.000000 0.750000
vt 1.000000 0.833333
vt 1.000000 0.916667
vt 1.000000 1.000000
vt 0.916667 1.000000
vt 0.916667 0.916667
vt 0.833333 1.000000
vt 0.833333 0.916667
vt 0.750000 1.000000
vt 0.750000 0.916667
vt 0.666667 1.000000
vt 0.666667 0.916667
vt 0.583333 1.000000
vt 0.583333 0.916667
vt 0.500000 1.000000
vt 0.500000 0.916667
vt 0.416667 1.000000
vt 0.416667 0.916667
vt 0.333333 1.000000
vt 0.333333 0.916667
vt 0.250000 1.000000
vt 0.250000 0.916667
vt 0.166667 1.000000
vt 0.166667 0.916667
vt 0.370000 0.457846
vt 0.250000 0.490000
vt 0.130000 0.457846
vt 0.042154 0.370000
vt 0.010000 0.250000
vt 0.042154 0.130000
vt 0.130000 0.042154
vt 0.250000 0.010000
vt 0.370000 0.042154
vt 0.457846 0.130000
vt 0.490000 0.250000
vt 0.457846 0.370000
vt 0.083333 1.000000
vt 0.083333 0.916667
vt 0.000000 1.000000
vt 0.000000 0.916667
vt 0.750000 0.490000
vt 0.870000 0.457846
vt 0.957846 0.370000
vt 0.990000 0.250000
vt 0.957846 0.130000
vt 0.870000 0.042154
vt 0.750000 0.010000
vt 0.630000 0.042154
vt 0.542154 0.130000
vt 0.510000 0.250000
vt 0.542154 0.370000
vt 0.630000 0.457846
vt 0.083333 0.500000
vt 0.083333 0.583333
vt 0.000000 0.583333
vt 0.000000 0.500000
vt 0.083333 0.666667
vt 0.000000 0.666667
vt 0.083333 0.750000
vt 0.000000 0.750000
vt 0.083333 0.833333
vt 0.000000 0.833333
vt 0.166667 0.500000
vt 0.166667 0.583333
vt 0.166667 0.666667
vt 0.166667 0.750000
vt 0.166667 0.833333
vt 0.250000 0.500000
vt 0.250000 0.583333
vt 0.250000 0.666667
vt 0.250000 0.750000
vt 0.250000 0.833333
vt 0.333333 0.500000
vt 0.333333 0.583333
vt 0.333333 0.666667
vt 0.333333 0.750000
vt 0.333333 0.833333
vt 0.416667 0.500000
vt 0.416667 0.583333
vt 0.416667 0.666667
vt 0.416667 0.750000
vt 0.416667 0.833333
vt 0.500000 0.500000
vt 0.500000 0.583333
vt 0.500000 0.666667
vt 0.500000 0.750000
vt 0.500000 0.833333
vt 0.583333 0.500000
vt 0.583333 0.583333
vt 0.583333 0.666667
vt 0.583333 0.750000
vt 0.583333 0.833333
vt 0.666667 0.500000
vt 0.666667 0.583333
vt 0.666667 0.666667
vt 0.666667 0.750000
vt 0.666667 0.833333
vt 0.750000 0.500000
vt 0.750000 0.583333
vt 0.750000 0.666667
vt 0.750000 0.750000
vt 0.750000 0.833333
vt 0.833333 0.500000
vt 0.833333 0.583333
vt 0.833333 0.666667
vt 0.833333 0.750000
vt 0.833333 0.833333
vt 0.916667 0.500000
vt 0.916667 0.583333
vt 0.916667 0.666667
vt 0.916667 0.750000
vt 0.916667 0.833333
vt 1.000000 0.500000
vt 1.000000 0.583333
vt 1.000000 0.666667
vt 1.000000 0.750000
vt 1.000000 0.833333
vn 0.2869 -0.0095 -0.9579
vn 0.7280 -0.0092 -0.6855
vn 0.9738 -0.0092 -0.2270
vn 0.9563 -0.0094 0.2922
vn 0.6827 -0.0097 0.7306
vn 0.2289 -0.0098 0.9734
vn -0.2861 -0.0096 0.9581
vn -0.7271 -0.0093 0.6864
vn -0.9735 -0.0092 0.2283
vn -0.9566 -0.0093 -0.2912
vn 0.0000 1.0000 0.0000
vn -0.6831 -0.0096 -0.7303
vn -0.2287 -0.0097 -0.9734
vn 0.0000 -1.0000 0.0000
vn -0.2721 0.0183 -0.9621
vn -0.2471 0.0001 -0.9690
vn -0.2697 -0.0065 -0.9629
vn -0.3600 0.0095 -0.9329
vn -0.2939 -0.0041 -0.9558
vn -0.7174 0.0184 -0.6964
vn -0.7017 0.0002 -0.7125
vn -0.7163 -0.0065 -0.6977
vn -0.7710 0.0089 -0.6368
vn -0.7219 -0.0039 -0.6920
vn -0.9695 0.0185 -0.2443
vn -0.9637 0.0005 -0.2672
vn -0.9685 -0.0069 -0.2488
vn -0.9857 0.0078 -0.1683
vn -0.9705 -0.0030 -0.2409
vn -0.9620 0.0185 0.2725
vn -0.9695 0.0006 0.2452
vn -0.9644 -0.0072 0.2644
vn -0.9343 0.0073 0.3565
vn -0.9573 -0.0022 0.2892
vn -0.6972 0.0185 0.7167
vn -0.7201 0.0004 0.6939
vn -0.7042 -0.0071 0.7099
vn -0.6209 0.0080 0.7838
vn -0.6729 -0.0024 0.7397
vn -0.2450 0.0184 0.9694
vn -0.2757 0.0001 0.9612
vn -0.2521 -0.0068 0.9677
vn -0.1434 0.0091 0.9896
vn -0.2108 -0.0032 0.9775
vn 0.2737 0.0184 0.9616
vn 0.2471 0.0001 0.9690
vn 0.2703 -0.0065 0.9628
vn 0.3608 0.0096 0.9326
vn 0.2940 -0.0039 0.9558
vn 0.7183 0.0185 0.6954
vn 0.7017 0.0002 0.7125
vn 0.7169 -0.0067 0.6972
vn 0.7703 0.0090 0.6376
vn 0.7221 -0.0037 0.6917
vn 0.9697 0.0186 0.2437
vn 0.9636 0.0005 0.2672
vn 0.9687 -0.0071 0.2480
vn 0.9853 0.0078 0.1706
vn 0.9706 -0.0029 0.2405
vn 0.9620 0.0187 -0.2723
vn 0.9695 0.0006 -0.2452
vn 0.9642 -0.0074 -0.2650
vn 0.9353 0.0073 -0.3537
vn 0.9572 -0.0022 -0.2896
vn 0.6979 0.0186 -0.7160
vn 0.7201 0.0004 -0.6939
vn 0.7041 -0.0072 -0.7101
vn 0.6234 0.0078 -0.7819
vn 0.6727 -0.0025 -0.7399
vn 0.2464 0.0184 -0.9690
vn 0.2757 0.0001 -0.9612
vn 0.2523 -0.0068 -0.9676
vn 0.1459 0.0089 -0.9893
vn 0.2106 -0.0034 -0.9776
usemtl None
s off
f 29/1/1 2/2/1 4/3/1 30/4/1
f 30/4/2 4/3/2 6/5/2 35/6/2
f 35/6/3 6/5/3 8/7/3 40/8/3
f 40/8/4 8/7/4 10/9/4 45/10/4
f 45/10/5 10/9/5 12/11/5 50/12/5
f 50/12/6 12/11/6 14/13/6 55/14/6
f 55/14/7 14/13/7 16/15/7 60/16/7
f 60/16/8 16/15/8 18/17/8 65/18/8
f 65/18/9 18/17/9 20/19/9 70/20/9
f 70/20/10 20/19/10 22/21/10 75/22/10
f 4/23/11 2/24/11 24/25/11 22/26/11 20/27/11 18/28/11 16/29/11 14/30/11 12/31/11 10/32/11 8/33/11 6/34/11
f 75/22/12 22/21/12 24/35/12 80/36/12
f 80/36/13 24/35/13 2/37/13 29/38/13
f 1/39/14 3/40/14 5/41/14 7/42/14 9/43/14 11/44/14 13/45/14 15/46/14 17/47/14 19/48/14 21/49/14 23/50/14
f 23/51/15 84/52/15 25/53/15 1/54/15
f 84/52/16 83/55/16 26/56/16 25/53/16
f 83/55/17 82/57/17 27/58/17 26/56/17
f 82/57/18 81/59/18 28/60/18 27/58/18
f 81/59/19 80/36/19 29/38/19 28/60/19
f 21/61/20 79/62/20 84/52/20 23/51/20
f 79/62/21 78/63/21 83/55/21 84/52/21
f 78/63/22 77/64/22 82/57/22 83/55/22
f 77/64/23 76/65/23 81/59/23 82/57/23
f 76/65/24 75/22/24 80/36/24 81/59/24
f 19/66/25 74/67/25 79/62/25 21/61/25
f 74/67/26 73/68/26 78/63/26 79/62/26
f 73/68/27 72/69/27 77/64/27 78/63/27
f 72/69/28 71/70/28 76/65/28 77/64/28
f 71/70/29 70/20/29 75/22/29 76/65/29
f 17/71/30 69/72/30 74/67/30 19/66/30
f 69/72/31 68/73/31 73/68/31 74/67/31
f 68/73/32 67/74/32 72/69/32 73/68/32
f 67/74/33 66/75/33 71/70/33 72/69/33
f 66/75/34 65/18/34 70/20/34 71/70/34
f 15/76/35 64/77/35 69/72/35 17/71/35
f 64/77/36 63/78/36 68/73/36 69/72/36
f 63/78/37 62/79/37 67/74/37 68/73/37
f 62/79/38 61/80/38 66/75/38 67/74/38
f 61/80/39 60/16/39 65/18/39 66/75/39
f 13/81/40 59/82/40 64/77/40 15/76/40
f 59/82/41 58/83/41 63/78/41 64/77/41
f 58/83/42 57/84/42 62/79/42 63/78/42
f 57/84/43 56/85/43 61/80/43 62/79/43
f 56/85/44 55/14/44 60/16/44 61/80/44
f 11/86/45 54/87/45 59/82/45 13/81/45
f 54/87/46 53/88/46 58/83/46 59/82/46
f 53/88/47 52/89/47 57/84/47 58/83/47
f 52/89/48 51/90/48 56/85/48 57/84/48
f 51/90/49 50/12/49 55/14/49 56/85/49
f 9/91/50 49/92/50 54/87/50 11/86/50
f 49/92/51 48/93/51 53/88/51 54/87/51
f 48/93/52 47/94/52 52/89/52 53/88/52
f 47/94/53 46/95/53 51/90/53 52/89/53
f 46/95/54 45/10/54 50/12/54 51/90/54
f 7/96/55 44/97/55 49/92/55 9/91/55
f 44/97/56 43/98/56 48/93/56 49/92/56
f 43/98/57 42/99/57 47/94/57 48/93/57
f 42/99/58 41/100/58 46/95/58 47/94/58
f 41/100/59 40/8/59 45/10/59 46/95/59
f 5/101/60 39/102/60 44/97/60 7/96/60
f 39/102/61 38/103/61 43/98/61 44/97/61
f 38/103/62 37/104/62 42/99/62 43/98/62
f 37/104/63 36/105/63 41/100/63 42/99/63
f 36/105/64 35/6/64 40/8/64 41/100/64
f 3/106/65 34/107/65 39/102/65 5/101/65
f 34/107/66 33/108/66 38/103/66 39/102/66
f 33/108/67 32/109/67 37/104/67 38/103/67
f 32/109/68 31/110/68 36/105/68 37/104/68
f 31/110/69 30/4/69 35/6/69 36/105/69
f 1/111/70 25/112/70 34/107/70 3/106/70
f 25/112/71 26/113/71 33/108/71 34/107/71
f 26/113/72 27/114/72 32/109/72 33/108/72
f 27/114/73 28/115/73 31/110/73 32/109/73
f 28/115/74 29/1/74 30/4/74 31/110/74
f 113/116/1 86/117/1 88/118/1 114/119/1
f 114/119/2 88/118/2 90/120/2 119/121/2
f 119/121/3 90/120/3 92/122/3 124/123/3
f 124/123/4 92/122/4 94/124/4 129/125/4
f 129/125/5 94/124/5 96/126/5 134/127/5
f 134/127/6 96/126/6 98/128/6 139/129/6
f 139/129/7 98/128/7 100/130/7 144/131/7
f 144/131/8 100/130/8 102/132/8 149/133/8
f 149/133/9 102/132/9 104/134/9 154/135/9
f 154/135/10 104/134/10 106/136/10 159/137/10
f 88/138/11 86/139/11 108/140/11 106/141/11 104/142/11 102/143/11 100/144/11 98/145/11 96/146/11 94/147/11 92/148/11 90/149/11
f 159/137/12 106/136/12 108/150/12 164/151/12
f 164/151/13 108/150/13 86/152/13 113/153/13
f 85/154/14 87/155/14 89/156/14 91/157/14 93/158/14 95/159/14 97/160/14 99/161/14 101/162/14 103/163/14 105/164/14 107/165/14
f 107/166/15 168/167/15 109/168/15 85/169/15
f 168/167/16 167/170/16 110/171/16 109/168/16
f 167/170/17 166/172/17 111/173/17 110/171/17
f 166/172/18 165/174/18 112/175/18 111/173/18
f 165/174/19 164/151/19 113/153/19 112/175/19
f 105/176/20 163/177/20 168/167/20 107/166/20
f 163/177/21 162/178/21 167/170/21 168/167/21
f 162/178/22 161/179/22 166/172/22 167/170/22
f 161/179/23 160/180/23 165/174/23 166/172/23
f 160/180/24 159/137/24 164/151/24 165/174/24
f 103/181/25 158/182/25 163/177/25 105/176/25
f 158/182/26 157/183/26 162/178/26 163/177/26
f 157/183/27 156/184/27 161/179/27 162/178/27
f 156/184/28 155/185/28 160/180/28 161/179/28
f 155/185/29 154/135/29 159/137/29 160/180/29
f 101/186/30 153/187/30 158/182/30 103/181/30
f 153/187/31 152/188/31 157/183/31 158/182/31
f 152/188/32 151/189/32 156/184/32 157/183/32
f 151/189/33 150/190/33 155/185/33 156/184/33
f 150/190/34 149/133/34 154/135/34 155/185/34
f 99/191/35 148/192/35 153/187/35 101/186/35
f 148/192/36 147/193/36 152/188/36 153/187/36
f 147/193/37 146/194/37 151/189/37 152/188/37
f 146/194/38 145/195/38 150/190/38 151/189/38
f 145/195/39 144/131/39 149/133/39 150/190/39
f 97/196/40 143/197/40 148/192/40 99/191/40
f 143/197/41 142/198/41 147/193/41 148/192/41
f 142/198/42 141/199/42 146/194/42 147/193/42
f 141/199/43 140/200/43 145/195/43 146/194/43
f 140/200/44 139/129/44 144/131/44 145/195/44
f 95/201/45 138/202/45 143/197/45 97/196/45
f 138/202/46 137/203/46 142/198/46 143/197/46
f 137/203/47 136/204/47 141/199/47 142/198/47
f 136/204/48 135/205/48 140/200/48 141/199/48
f 135/205/49 134/127/49 139/129/49 140/200/49
f 93/206/50 133/207/50 138/202/50 95/201/50
f 133/207/51 132/208/51 137/203/51 138/202/51
f 132/208/52 131/209/52 136/204/52 137/203/52
f 131/209/53 130/210/53 135/205/53 136/204/53
f 130/210/54 129/125/54 134/127/54 135/205/54
f 91/211/55 128/212/55 133/207/55 93/206/55
f 128/212/56 127/213/56 132/208/56 133/207/56
f 127/213/57 126/214/57 131/209/57 132/208/57
f 126/214/58 125/215/58 130/210/58 131/209/58
f 125/215/59 124/123/59 129/125/59 130/210/59
f 89/216/60 123/217/60 128/212/60 91/211/60
f 123/217/61 122/218/61 127/213/61 128/212/61
f 122/218/62 121/219/62 126/214/62 127/213/62
f 121/219/63 120/220/63 125/215/63 126/214/63
f 120/220/64 119/121/64 124/123/64 125/215/64
f 87/221/65 118/222/65 123/217/65 89/216/65
f 118/222/66 117/223/66 122/218/66 123/217/66
f 117/223/67 116/224/67 121/219/67 122/218/67
f 116/224/68 115/225/68 120/220/68 121/219/68
f 115/225/69 114/119/69 119/121/69 120/220/69
f 85/226/70 109/227/70 118/222/70 87/221/70
f 109/227/71 110/228/71 117/223/71 118/222/71
f 110/228/72 111/229/72 116/224/72 117/223/72
f 111/229/73 112/230/73 115/225/73 116/224/73
f 112/230/74 113/116/74 114/119/74 115/225/74
