# Blender v2.81 (sub 16) OBJ File: 'Tesseract.blend'
# www.blender.org
mtllib TesseractBroken1.mtl
o Cube.002_Cube.007
v -0.960000 -0.954860 1.194860
v -0.965140 -0.957871 1.200000
v -0.957871 -0.965140 1.200000
v -0.954860 -0.960000 1.194860
v -0.960000 0.954860 1.194860
v -0.954860 0.960000 1.194860
v -0.957871 0.965140 1.200000
v -0.965140 0.957871 1.200000
v -0.960000 -0.954860 -1.194860
v -0.954860 -0.960000 -1.194860
v -0.957871 -0.965140 -1.200000
v -0.965140 -0.957871 -1.200000
v -0.960000 0.954860 -1.194860
v -0.965140 0.957871 -1.200000
v -0.957871 0.965140 -1.200000
v -0.954860 0.960000 -1.194860
v 0.960000 -0.954860 1.194860
v 0.954860 -0.960000 1.194860
v 0.957871 -0.965140 1.200000
v 0.965140 -0.957871 1.200000
v 0.960000 0.954860 1.194860
v 0.965140 0.957871 1.200000
v 0.957871 0.965140 1.200000
v 0.954860 0.960000 1.194860
v 0.954860 -0.960000 -1.194860
v 0.960000 -0.954860 -1.194860
v 0.965140 -0.957871 -1.200000
v 0.957871 -0.965140 -1.200000
v 0.954860 0.960000 -1.194860
v 0.957871 0.965140 -1.200000
v 0.965140 0.957871 -1.200000
v 0.960000 0.954860 -1.194860
v -1.194860 -0.960000 0.954860
v -1.200000 -0.965140 0.957871
v -1.200000 -0.957871 0.965140
v -1.194860 -0.954860 0.960000
v -1.194860 0.954860 0.960000
v -1.200000 0.957871 0.965140
v -1.200000 0.965140 0.957871
v -1.194860 0.960000 0.954860
v -1.194860 0.960000 -0.954860
v -1.200000 0.965140 -0.957871
v -1.200000 0.957871 -0.965140
v -1.194860 0.954860 -0.960000
v -1.194860 -0.960000 -0.954860
v -1.194860 -0.954860 -0.960000
v -1.200000 -0.957871 -0.965140
v -1.200000 -0.965140 -0.957871
v 1.194860 -0.954860 -0.960000
v 1.194860 -0.960000 -0.954860
v 1.200000 -0.965140 -0.957871
v 1.200000 -0.957871 -0.965140
v 1.194860 0.954860 -0.960000
v 1.200000 0.957871 -0.965140
v 1.200000 0.965140 -0.957871
v 1.194860 0.960000 -0.954860
v 1.194860 0.960000 0.954860
v 1.200000 0.965140 0.957871
v 1.200000 0.957871 0.965140
v 1.194860 0.954860 0.960000
v 1.194860 -0.960000 0.954860
v 1.194860 -0.954860 0.960000
v 1.200000 -0.957871 0.965140
v 1.200000 -0.965140 0.957871
v -0.960000 -0.954860 0.960000
v -0.954860 -0.960000 0.960000
v -0.954860 0.960000 0.960000
v -0.960000 0.954860 0.960000
v -0.960000 0.954860 -0.960000
v -0.954860 0.960000 -0.960000
v -0.954860 -0.960000 -0.960000
v -0.960000 -0.954860 -0.960000
v 0.960000 -0.954860 -0.960000
v 0.954860 -0.960000 -0.960000
v 0.954860 0.960000 -0.960000
v 0.960000 0.954860 -0.960000
v 0.960000 0.954860 0.960000
v 0.954860 0.960000 0.960000
v 0.954860 -0.960000 0.960000
v 0.960000 -0.954860 0.960000
v -0.960000 -1.194860 -0.954860
v -0.965140 -1.200000 -0.957871
v -0.957871 -1.200000 -0.965140
v -0.954860 -1.194860 -0.960000
v -0.960000 -1.194860 0.954860
v -0.954860 -1.194860 0.960000
v -0.957871 -1.200000 0.965140
v -0.965140 -1.200000 0.957871
v -0.960000 1.194860 0.954860
v -0.965140 1.200000 0.957871
v -0.957871 1.200000 0.965140
v -0.954860 1.194860 0.960000
v -0.960000 1.194860 -0.954860
v -0.954860 1.194860 -0.960000
v -0.957871 1.200000 -0.965140
v -0.965140 1.200000 -0.957871
v 0.954860 1.194860 -0.960000
v 0.960000 1.194860 -0.954860
v 0.965140 1.200000 -0.957871
v 0.957871 1.200000 -0.965140
v 0.954860 -1.194860 -0.960000
v 0.957871 -1.200000 -0.965140
v 0.965140 -1.200000 -0.957871
v 0.960000 -1.194860 -0.954860
v 0.960000 -1.194860 0.954860
v 0.965140 -1.200000 0.957871
v 0.957871 -1.200000 0.965140
v 0.954860 -1.194860 0.960000
v 0.960000 1.194860 0.954860
v 0.954860 1.194860 0.960000
v 0.957871 1.200000 0.965140
v 0.965140 1.200000 0.957871
v -0.960000 -0.954860 -0.960000
v -0.960000 -0.960000 -0.954860
v -0.960000 -0.960000 0.954860
v -0.960000 -0.954860 0.960000
v -0.960000 0.954860 0.960000
v -0.960000 0.960000 0.954860
v -0.960000 0.960000 -0.954860
v -0.960000 0.954860 -0.960000
v 0.960000 0.954860 -0.960000
v 0.960000 0.960000 -0.954860
v 0.960000 -0.960000 -0.954860
v 0.960000 -0.954860 -0.960000
v 0.960000 -0.954860 0.960000
v 0.960000 -0.960000 0.954860
v 0.960000 0.960000 0.954860
v 0.960000 0.954860 0.960000
v -1.194860 -1.200000 -1.187591
v -1.200000 -1.194860 -1.187591
v -1.200000 -1.187591 -1.194860
v -1.194860 -1.187591 -1.200000
v -1.187591 -1.194860 -1.200000
v -1.187591 -1.200000 -1.194860
v -1.194860 -1.200000 1.187591
v -1.187591 -1.200000 1.194860
v -1.187591 -1.194860 1.200000
v -1.194860 -1.187591 1.200000
v -1.200000 -1.187591 1.194860
v -1.200000 -1.194860 1.187591
v -1.200000 1.187591 1.194860
v -1.194860 1.187591 1.200000
v -1.187591 1.194860 1.200000
v -1.187591 1.200000 1.194860
v -1.194860 1.200000 1.187591
v -1.200000 1.194860 1.187591
v -1.194860 1.200000 -1.187591
v -1.187591 1.200000 -1.194860
v -1.187591 1.194860 -1.200000
v -1.194860 1.187591 -1.200000
v -1.200000 1.187591 -1.194860
v -1.200000 1.194860 -1.187591
v 1.187591 -1.200000 -1.194860
v 1.187591 -1.194860 -1.200000
v 1.194860 -1.187591 -1.200000
v 1.200000 -1.187591 -1.194860
v 1.200000 -1.194860 -1.187591
v 1.194860 -1.200000 -1.187591
v 1.187591 1.200000 -1.194860
v 1.194860 1.200000 -1.187591
v 1.200000 1.194860 -1.187591
v 1.200000 1.187591 -1.194860
v 1.194860 1.187591 -1.200000
v 1.187591 1.194860 -1.200000
v 1.194860 -1.200000 1.187591
v 1.200000 -1.194860 1.187591
v 1.200000 -1.187591 1.194860
v 1.194860 -1.187591 1.200000
v 1.187591 -1.194860 1.200000
v 1.187591 -1.200000 1.194860
v 1.194860 1.200000 1.187591
v 1.187591 1.200000 1.194860
v 1.187591 1.194860 1.200000
v 1.194860 1.187591 1.200000
v 1.200000 1.187591 1.194860
v 1.200000 1.194860 1.187591
v -0.960000 -0.960000 -0.954860
v -0.954860 -0.960000 -0.960000
v -0.954860 -0.960000 0.960000
v -0.960000 -0.960000 0.954860
v -0.960000 0.960000 0.954860
v -0.954860 0.960000 0.960000
v -0.954860 0.960000 -0.960000
v -0.960000 0.960000 -0.954860
v 0.954860 -0.960000 -0.960000
v 0.960000 -0.960000 -0.954860
v 0.960000 0.960000 -0.954860
v 0.954860 0.960000 -0.960000
v 0.960000 -0.960000 0.954860
v 0.954860 -0.960000 0.960000
v 0.954860 0.960000 0.960000
v 0.960000 0.960000 0.954860
vt 0.599465 0.225000
vt 0.400535 0.225000
vt 0.400535 0.225000
vt 0.599464 0.225000
vt 0.400535 0.275000
vt 0.599465 0.275000
vt 0.599465 0.275000
vt 0.400535 0.275000
vt 0.399465 0.525222
vt 0.399465 0.724778
vt 0.375535 0.748707
vt 0.375535 0.501293
vt 0.600535 0.974778
vt 0.600535 0.775222
vt 0.624465 0.751293
vt 0.624465 0.998707
vt 0.649465 0.525222
vt 0.649465 0.724778
vt 0.625535 0.748707
vt 0.625535 0.501293
vt 0.350000 0.525535
vt 0.350000 0.724464
vt 0.350000 0.724464
vt 0.350000 0.525535
vt 0.400000 0.974465
vt 0.400000 0.775535
vt 0.400000 0.775536
vt 0.400000 0.974465
vt 0.400000 0.474465
vt 0.400000 0.275535
vt 0.400000 0.275535
vt 0.400000 0.474465
vt 0.599778 0.274465
vt 0.400222 0.274465
vt 0.376293 0.250535
vt 0.623707 0.250535
vt 0.400535 0.775000
vt 0.599465 0.775000
vt 0.599465 0.775000
vt 0.400535 0.775000
vt 0.400000 0.224465
vt 0.400000 0.025535
vt 0.400000 0.025535
vt 0.400000 0.224465
vt 0.599465 0.475000
vt 0.400535 0.475000
vt 0.400535 0.475000
vt 0.599464 0.475000
vt 0.599465 0.975000
vt 0.400535 0.975000
vt 0.400535 0.975000
vt 0.599464 0.975000
vt 0.600000 0.775535
vt 0.600000 0.974464
vt 0.600000 0.974465
vt 0.600000 0.775535
vt 0.599778 0.774465
vt 0.400222 0.774465
vt 0.376293 0.750535
vt 0.623707 0.750535
vt 0.600535 0.474778
vt 0.600535 0.275222
vt 0.624465 0.251293
vt 0.624465 0.498707
vt 0.399465 0.275222
vt 0.399465 0.474778
vt 0.375535 0.498707
vt 0.375535 0.251293
vt 0.399465 0.775222
vt 0.399465 0.974778
vt 0.375535 0.998707
vt 0.375535 0.751293
vt 0.400222 0.475535
vt 0.599778 0.475535
vt 0.623707 0.499465
vt 0.376293 0.499465
vt 0.600000 0.275535
vt 0.600000 0.474465
vt 0.600000 0.474465
vt 0.600000 0.275535
vt 0.400535 0.025000
vt 0.599465 0.025000
vt 0.599465 0.025000
vt 0.400535 0.025000
vt 0.600535 0.224778
vt 0.600535 0.025222
vt 0.624465 0.001293
vt 0.624465 0.248707
vt 0.600000 0.025535
vt 0.600000 0.224465
vt 0.600000 0.224465
vt 0.600000 0.025535
vt 0.599778 0.524465
vt 0.400222 0.524465
vt 0.376293 0.500535
vt 0.623707 0.500535
vt 0.400000 0.724465
vt 0.400000 0.525535
vt 0.400000 0.525535
vt 0.400000 0.724465
vt 0.600000 0.525535
vt 0.600000 0.724464
vt 0.600000 0.724464
vt 0.600000 0.525535
vt 0.599465 0.725000
vt 0.400535 0.725000
vt 0.400535 0.725000
vt 0.599464 0.725000
vt 0.150000 0.724465
vt 0.150000 0.525535
vt 0.150000 0.525535
vt 0.150000 0.724465
vt 0.399465 0.025222
vt 0.399465 0.224778
vt 0.375535 0.248707
vt 0.375535 0.001293
vt 0.400222 0.725535
vt 0.599778 0.725535
vt 0.623707 0.749465
vt 0.376293 0.749465
vt 0.400535 0.525000
vt 0.599465 0.525000
vt 0.599465 0.525000
vt 0.400535 0.525000
vt 0.400222 0.225535
vt 0.599778 0.225535
vt 0.623707 0.249465
vt 0.376293 0.249465
vt 0.599778 0.024465
vt 0.400222 0.024465
vt 0.376293 0.000535
vt 0.623707 0.000535
vt 0.600535 0.724778
vt 0.600535 0.525222
vt 0.624465 0.501293
vt 0.624465 0.748707
vt 0.150535 0.525000
vt 0.349465 0.525000
vt 0.349465 0.525000
vt 0.150535 0.525000
vt 0.849464 0.725000
vt 0.650535 0.725000
vt 0.650535 0.725000
vt 0.849464 0.725000
vt 0.349465 0.725000
vt 0.150535 0.725000
vt 0.150535 0.725000
vt 0.349465 0.725000
vt 0.650535 0.525000
vt 0.849465 0.525000
vt 0.849465 0.525000
vt 0.650536 0.525000
vt 0.650000 0.724465
vt 0.650000 0.525535
vt 0.650000 0.525535
vt 0.650000 0.724465
vt 0.850000 0.525535
vt 0.850000 0.724464
vt 0.850000 0.724464
vt 0.850000 0.525535
vt 0.849778 0.524465
vt 0.650222 0.524465
vt 0.626293 0.500535
vt 0.873707 0.500535
vt 0.850535 0.724778
vt 0.850535 0.525222
vt 0.874465 0.501293
vt 0.874465 0.748707
vt 0.150222 0.725535
vt 0.349778 0.725535
vt 0.373707 0.749465
vt 0.126293 0.749465
vt 0.350535 0.724778
vt 0.350535 0.525222
vt 0.374465 0.501293
vt 0.374465 0.748707
vt 0.349778 0.524465
vt 0.150222 0.524465
vt 0.126293 0.500535
vt 0.373707 0.500535
vt 0.149465 0.525222
vt 0.149465 0.724778
vt 0.125535 0.748707
vt 0.125535 0.501293
vt 0.650222 0.725535
vt 0.849778 0.725535
vt 0.873707 0.749465
vt 0.626293 0.749465
vt 0.400222 0.975535
vt 0.599778 0.975535
vt 0.125000 0.501293
vt 0.125000 0.500535
vt 0.125268 0.500268
vt 0.125646 0.500646
vt 0.125914 0.500914
vt 0.125914 0.749086
vt 0.125646 0.749354
vt 0.125268 0.749732
vt 0.125000 0.749465
vt 0.125000 0.748707
vt 0.623707 0.000000
vt 0.624465 0.000000
vt 0.624732 0.000268
vt 0.624354 0.000646
vt 0.624086 0.000914
vt 0.874086 0.500914
vt 0.874354 0.500646
vt 0.874732 0.500268
vt 0.875000 0.500535
vt 0.875000 0.501293
vt 0.373707 0.500000
vt 0.374465 0.500000
vt 0.374732 0.500268
vt 0.374354 0.500646
vt 0.374086 0.500914
vt 0.625914 0.500914
vt 0.625646 0.500646
vt 0.625268 0.500268
vt 0.625535 0.500000
vt 0.626293 0.500000
vt 0.375000 0.748707
vt 0.375000 0.749465
vt 0.374732 0.749732
vt 0.374354 0.749354
vt 0.374086 0.749086
vt 0.625914 0.749086
vt 0.625646 0.749354
vt 0.625268 0.749732
vt 0.625000 0.749465
vt 0.625000 0.748707
vt 0.376293 0.999465
vt 0.623707 0.999465
vt 0.623707 1.000000
vt 0.376293 1.000000
vt 0.875000 0.748707
vt 0.126293 0.500000
vt 0.873707 0.500000
vt 0.373707 0.750000
vt 0.126293 0.750000
vt 0.873707 0.750000
vt 0.626293 0.750000
vn -0.0000 0.0000 1.0000
vn 1.0000 0.0000 -0.0000
vn 0.0000 1.0000 0.0000
vn -1.0000 -0.0000 0.0000
vn -0.0000 0.0000 -1.0000
vn 0.0000 -1.0000 0.0000
vn 0.4706 0.4706 0.7463
vn 0.4706 -0.4706 0.7463
vn 0.4706 0.4706 -0.7463
vn 0.4706 -0.4706 -0.7463
vn -0.4706 0.4706 0.7463
vn -0.4706 -0.4706 0.7463
vn -0.4706 0.4706 -0.7463
vn -0.4706 -0.4706 -0.7463
vn -0.7463 0.4706 -0.4706
vn -0.7463 -0.4706 -0.4706
vn -0.7463 -0.4706 0.4706
vn -0.7463 0.4706 0.4706
vn 0.7463 0.4706 0.4706
vn 0.7463 -0.4706 0.4706
vn 0.7463 -0.4706 -0.4706
vn 0.7463 0.4706 -0.4706
vn 0.4706 -0.7463 0.4706
vn 0.4706 -0.7463 -0.4706
vn 0.4706 0.7463 -0.4706
vn 0.4706 0.7463 0.4706
vn -0.4706 0.7463 0.4706
vn -0.4706 -0.7463 0.4706
vn -0.4706 -0.7463 -0.4706
vn -0.4706 0.7463 -0.4706
vn -0.5774 -0.5774 -0.5774
vn -0.5774 -0.5774 0.5774
vn -0.5774 0.5774 0.5774
vn -0.5774 0.5774 -0.5774
vn 0.5774 -0.5774 -0.5774
vn 0.5774 0.5774 -0.5774
vn 0.5774 -0.5774 0.5774
vn 0.5774 0.5774 0.5774
vn -0.7071 -0.7071 0.0000
vn -0.7071 0.0000 0.7071
vn -0.7071 0.7071 0.0000
vn -0.7071 0.0000 -0.7071
vn 0.0000 -0.7071 -0.7071
vn 0.0000 0.7071 -0.7071
vn 0.7071 0.0000 -0.7071
vn 0.7071 -0.7071 0.0000
vn 0.7071 0.7071 0.0000
vn 0.7071 0.0000 0.7071
vn 0.0000 -0.7071 0.7071
vn 0.0000 0.7071 0.7071
usemtl None
s off
f 44/1/1 46/2/1 113/3/1 120/4/1
f 9/5/2 13/6/2 69/7/2 72/8/2
f 51/9/2 64/10/2 166/11/2 157/12/2
f 7/13/1 23/14/1 173/15/1 143/16/1
f 99/17/3 112/18/3 171/19/3 160/20/3
f 104/21/4 105/22/4 189/23/4 186/24/4
f 4/25/3 18/26/3 79/27/3 66/28/3
f 25/29/3 10/30/3 71/31/3 74/32/3
f 14/33/5 12/34/5 132/35/5 150/36/5
f 17/37/4 21/38/4 77/39/4 80/40/4
f 45/41/3 33/42/3 115/43/3 114/44/3
f 32/45/4 26/46/4 73/47/4 76/48/4
f 5/49/2 1/50/2 65/51/2 68/52/2
f 24/53/6 6/54/6 67/55/6 78/56/6
f 22/57/1 20/58/1 168/59/1 174/60/1
f 30/61/5 15/62/5 149/63/5 164/64/5
f 11/65/5 28/66/5 154/67/5 133/68/5
f 19/69/1 3/70/1 137/71/1 169/72/1
f 27/73/5 31/74/5 163/75/5 155/76/5
f 16/77/6 29/78/6 75/79/6 70/80/6
f 36/81/5 37/82/5 117/83/5 116/84/5
f 42/85/4 39/86/4 146/87/4 152/88/4
f 40/89/6 41/90/6 119/91/6 118/92/6
f 54/93/2 52/94/2 156/95/2 162/96/2
f 61/97/3 50/98/3 123/99/3 126/100/3
f 56/101/6 57/102/6 127/103/6 122/104/6
f 60/105/5 62/106/5 125/107/5 128/108/5
f 85/109/2 81/110/2 177/111/2 180/112/2
f 34/113/4 48/114/4 130/115/4 140/116/4
f 63/117/2 59/118/2 175/119/2 167/120/2
f 49/121/1 53/122/1 121/123/1 124/124/1
f 47/125/4 43/126/4 151/127/4 131/128/4
f 38/129/4 35/130/4 139/131/4 141/132/4
f 58/133/2 55/134/2 161/135/2 176/136/2
f 84/137/1 101/138/1 185/139/1 178/140/1
f 92/141/5 110/142/5 191/143/5 182/144/5
f 108/145/5 86/146/5 179/147/5 190/148/5
f 97/149/1 94/150/1 183/151/1 188/152/1
f 109/153/4 98/154/4 187/155/4 192/156/4
f 93/157/2 89/158/2 181/159/2 184/160/2
f 95/161/3 100/162/3 159/163/3 148/164/3
f 90/165/3 96/166/3 147/167/3 145/168/3
f 87/169/6 107/170/6 170/171/6 136/172/6
f 106/173/6 103/174/6 158/175/6 165/176/6
f 102/177/6 83/178/6 134/179/6 153/180/6
f 82/181/6 88/182/6 135/183/6 129/184/6
f 111/185/3 91/186/3 144/187/3 172/188/3
f 1/50/7 2/189/7 3/70/7 4/25/7
f 5/49/8 6/54/8 7/13/8 8/190/8
f 9/5/9 10/30/9 11/65/9 12/34/9
f 13/6/10 14/33/10 15/62/10 16/77/10
f 17/37/11 18/26/11 19/69/11 20/58/11
f 21/38/12 22/57/12 23/14/12 24/53/12
f 25/29/13 26/46/13 27/73/13 28/66/13
f 29/78/14 30/61/14 31/74/14 32/45/14
f 33/42/15 34/113/15 35/130/15 36/81/15
f 37/82/16 38/129/16 39/86/16 40/89/16
f 41/90/17 42/85/17 43/126/17 44/1/17
f 45/41/18 46/2/18 47/125/18 48/114/18
f 49/121/19 50/98/19 51/9/19 52/94/19
f 53/122/20 54/93/20 55/134/20 56/101/20
f 57/102/21 58/133/21 59/118/21 60/105/21
f 61/97/22 62/106/22 63/117/22 64/10/22
f 81/110/23 82/181/23 83/178/23 84/137/23
f 85/109/24 86/146/24 87/169/24 88/182/24
f 89/158/25 90/165/25 91/186/25 92/141/25
f 93/157/26 94/150/26 95/161/26 96/166/26
f 97/149/27 98/154/27 99/17/27 100/162/27
f 101/138/28 102/177/28 103/174/28 104/21/28
f 105/22/29 106/173/29 107/170/29 108/145/29
f 109/153/30 110/142/30 111/185/30 112/18/30
f 129/184/31 130/191/31 131/192/31 132/193/31 133/194/31 134/195/31
f 135/183/32 136/196/32 137/197/32 138/198/32 139/199/32 140/200/32
f 141/132/33 142/201/33 143/202/33 144/203/33 145/204/33 146/205/33
f 147/167/34 148/206/34 149/207/34 150/208/34 151/209/34 152/210/34
f 153/180/35 154/211/35 155/212/35 156/213/35 157/214/35 158/215/35
f 159/163/36 160/216/36 161/217/36 162/218/36 163/219/36 164/220/36
f 165/176/37 166/221/37 167/222/37 168/223/37 169/224/37 170/225/37
f 171/19/38 172/226/38 173/227/38 174/228/38 175/229/38 176/230/38
f 129/184/39 135/183/39 140/200/39 130/191/39
f 138/231/40 142/232/40 141/233/40 139/234/40
f 145/168/41 147/167/41 152/210/41 146/235/41
f 150/36/42 132/35/42 131/128/42 151/127/42
f 153/180/43 134/179/43 133/236/43 154/211/43
f 148/164/44 159/163/44 164/220/44 149/237/44
f 162/96/45 156/95/45 155/76/45 163/75/45
f 165/176/46 158/175/46 157/12/46 166/11/46
f 160/20/47 171/19/47 176/136/47 161/135/47
f 174/60/48 168/59/48 167/120/48 175/119/48
f 136/172/49 170/171/49 169/238/49 137/239/49
f 172/188/50 144/187/50 143/240/50 173/241/50
f 1/50/48 5/49/48 8/190/48 2/189/48
f 13/6/45 9/5/45 12/34/45 14/33/45
f 28/66/44 11/65/44 10/30/44 25/29/44
f 15/62/43 30/61/43 29/78/43 16/77/43
f 31/74/42 27/73/42 26/46/42 32/45/42
f 21/38/40 17/37/40 20/58/40 22/57/40
f 3/70/50 19/69/50 18/26/50 4/25/50
f 23/14/49 7/13/49 6/54/49 24/53/49
f 137/71/1 3/70/1 2/189/1 138/231/1
f 7/13/1 143/16/1 142/232/1 8/190/1
f 149/63/5 15/62/5 14/33/5 150/36/5
f 11/65/5 133/68/5 132/35/5 12/34/5
f 27/73/5 155/76/5 154/67/5 28/66/5
f 163/75/5 31/74/5 30/61/5 164/64/5
f 173/15/1 23/14/1 22/57/1 174/60/1
f 19/69/1 169/72/1 168/59/1 20/58/1
f 4/25/47 66/28/47 65/51/47 1/50/47
f 67/55/46 6/54/46 5/49/46 68/52/46
f 77/39/39 21/38/39 24/53/39 78/56/39
f 79/27/41 18/26/41 17/37/41 80/40/41
f 32/45/39 76/48/39 75/79/39 29/78/39
f 69/7/46 13/6/46 16/77/46 70/80/46
f 71/31/47 10/30/47 9/5/47 72/8/47
f 25/29/41 74/32/41 73/47/41 26/46/41
f 48/114/41 34/113/41 33/42/41 45/41/41
f 35/130/42 38/129/42 37/82/42 36/81/42
f 39/86/39 42/85/39 41/90/39 40/89/39
f 43/126/40 47/125/40 46/2/40 44/1/40
f 53/122/48 49/121/48 52/94/48 54/93/48
f 64/10/47 51/9/47 50/98/47 61/97/47
f 55/134/46 58/133/46 57/102/46 56/101/46
f 59/118/45 63/117/45 62/106/45 60/105/45
f 139/131/4 35/130/4 34/113/4 140/116/4
f 47/125/4 131/128/4 130/115/4 48/114/4
f 146/87/4 39/86/4 38/129/4 141/132/4
f 151/127/4 43/126/4 42/85/4 152/88/4
f 161/135/2 55/134/2 54/93/2 162/96/2
f 51/9/2 157/12/2 156/95/2 52/94/2
f 63/117/2 167/120/2 166/11/2 64/10/2
f 175/119/2 59/118/2 58/133/2 176/136/2
f 56/101/49 122/104/49 121/123/49 53/122/49
f 123/99/50 50/98/50 49/121/50 124/124/50
f 44/1/49 120/4/49 119/91/49 41/90/49
f 117/83/43 37/82/43 40/89/43 118/92/43
f 36/81/44 116/84/44 115/43/44 33/42/44
f 113/3/50 46/2/50 45/41/50 114/44/50
f 61/97/44 126/100/44 125/107/44 62/106/44
f 127/103/43 57/102/43 60/105/43 128/108/43
f 81/110/46 85/109/46 88/182/46 82/181/46
f 89/158/47 93/157/47 96/166/47 90/165/47
f 101/138/49 84/137/49 83/178/49 102/177/49
f 94/150/50 97/149/50 100/162/50 95/161/50
f 105/22/39 104/21/39 103/174/39 106/173/39
f 98/154/41 109/153/41 112/18/41 99/17/41
f 86/146/43 108/145/43 107/170/43 87/169/43
f 110/142/44 92/141/44 91/186/44 111/185/44
f 134/179/6 83/178/6 82/181/6 129/184/6
f 87/169/6 136/172/6 135/183/6 88/182/6
f 144/187/3 91/186/3 90/165/3 145/168/3
f 95/161/3 148/164/3 147/167/3 96/166/3
f 158/175/6 103/174/6 102/177/6 153/180/6
f 99/17/3 160/20/3 159/163/3 100/162/3
f 170/171/6 107/170/6 106/173/6 165/176/6
f 111/185/3 172/188/3 171/19/3 112/18/3
f 97/149/40 188/152/40 187/155/40 98/154/40
f 191/143/42 110/142/42 109/153/42 192/156/42
f 93/157/48 184/160/48 183/151/48 94/150/48
f 92/141/45 182/144/45 181/159/45 89/158/45
f 85/109/45 180/112/45 179/147/45 86/146/45
f 189/23/42 105/22/42 108/145/42 190/148/42
f 185/139/40 101/138/40 104/21/40 186/24/40
f 177/111/48 81/110/48 84/137/48 178/140/48
f 2/189/1 8/190/1 142/232/1 138/231/1
o Cube.002_cell_Cube.002_cell.008
v -0.543298 -1.118113 0.557927
v 0.633447 -0.052108 -0.032760
v 0.460139 -0.118292 -0.344498
v 0.047981 0.367690 0.133135
v -0.620069 0.391073 -0.275175
v -0.377347 0.401297 -0.262396
v -0.021471 -0.380137 1.079755
v 0.021770 -0.382096 1.033744
v 0.625083 -0.409611 0.391519
v 0.051245 -1.118113 -0.036616
v -0.009727 -0.740486 -0.509690
v 0.032288 -0.767179 -0.513954
v -1.260749 -0.103484 -0.159524
v -1.073365 -0.065403 -0.400762
v -1.066150 -0.069973 -0.401516
v -0.955365 0.317203 0.145860
v -0.947705 0.316538 0.153520
v -0.376107 0.265888 0.725118
v -0.021471 -0.380137 1.079755
v 0.021770 -0.382096 1.033744
v 0.625083 -0.409611 0.391519
v 0.051245 -1.118113 -0.036616
v 0.032288 -0.767179 -0.513954
v -0.009727 -0.740486 -0.509690
v -1.260749 -0.103484 -0.159524
v -1.073365 -0.065403 -0.400762
v -1.066150 -0.069973 -0.401516
v -0.955365 0.317203 0.145860
v -0.947705 0.316538 0.153520
v -0.376107 0.265888 0.725118
vt 0.375000 0.000000
vt 0.538071 0.000000
vt 0.554035 0.126788
vt 0.470319 0.221697
vt 0.469196 0.222967
vt 0.375000 0.224203
vt 0.000000 0.000000
vt 0.939002 0.000000
vt 0.938851 0.923282
vt 0.930202 0.930202
vt 0.000000 0.000000
vt 1.000000 0.000000
vt 1.000000 0.930202
vt 0.945589 0.945589
vt 0.000000 0.000000
vt 0.945589 0.000000
vt 0.947288 0.947288
vt 1.000000 0.000000
vt 1.000000 1.000000
vt 1.000000 0.000000
vt 1.000000 0.950133
vt 0.949482 0.949482
vt 0.920131 0.000000
vt 0.990587 0.940633
vt 0.049867 0.000000
vt 0.000000 0.000000
vt 0.000000 0.000000
vt 1.000000 0.000000
vt 0.375000 0.868623
vt 0.531558 0.852525
vt 0.537638 0.990139
vt 0.538071 1.000000
vt 0.375000 1.000000
vt 1.000000 0.949482
vt 0.050536 0.000000
vt 1.000000 0.919820
vt 0.079869 0.000000
vt 1.000000 0.000000
vt 0.050536 0.050536
vt 0.060998 0.000000
vt 1.000000 1.000000
vt 0.125000 0.525797
vt 0.172357 0.517382
vt 0.173237 0.518392
vt 0.301908 0.666555
vt 0.307021 0.672454
vt 0.256377 0.750000
vt 0.125000 0.750000
vt 0.947288 0.000000
vt 0.968747 0.939672
vt 0.919820 0.919820
vn -0.7071 -0.0000 0.7071
vn -0.6097 0.7052 -0.3620
vn -0.0488 0.9897 0.1348
vn -0.0481 0.9896 0.1358
vn 0.4492 0.7908 -0.4158
vn 0.0442 0.2250 -0.9733
vn 0.8193 -0.4461 -0.3603
vn 0.4492 0.7899 -0.4174
vn 0.5000 -0.7071 0.5000
vn 0.0429 0.2247 -0.9735
vn 0.5893 0.6121 0.5274
vn 0.0417 0.2263 -0.9732
vn -0.5000 -0.7071 -0.5000
vn 0.5888 0.6127 0.5272
usemtl None
s off
f 193/242/51 211/243/51 222/244/51 221/245/51 220/246/51 217/247/51
f 197/248/52 218/249/52 205/250/52 208/251/52
f 198/252/53 197/253/53 208/254/53 209/255/53
f 196/256/54 198/252/54 209/257/54 210/258/54
f 198/252/55 196/259/55 194/260/55
f 198/252/56 195/261/56 215/262/56 216/263/56
f 213/264/57 214/265/57 215/266/57 195/267/57 194/268/57
f 195/267/58 198/269/58 194/260/58
f 202/270/59 201/271/59 212/272/59 211/273/59 193/274/59
f 216/275/60 219/276/60 198/269/60
f 200/277/61 213/278/61 194/279/61
f 219/280/62 218/281/62 197/253/62 198/282/62
f 217/283/63 206/284/63 207/285/63 203/286/63 204/287/63 202/288/63 193/289/63
f 210/290/64 199/291/64 200/292/64 194/260/64 196/256/64
